<?xml version="1.0" encoding="UTF-8" standalone="no"?>
<svg width="48px" height="48px" viewBox="0 0 48 48" version="1.1" xmlns="http://www.w3.org/2000/svg" xmlns:xlink="http://www.w3.org/1999/xlink" xmlns:sketch="http://www.bohemiancoding.com/sketch/ns">
    <!-- Generator: Sketch 3.4.4 (17249) - http://www.bohemiancoding.com/sketch -->
    <title>Artist_7</title>
    <desc>Created with Sketch.</desc>
    <defs>
        <linearGradient x1="50%" y1="0%" x2="50%" y2="100%" id="linearGradient-1">
            <stop stop-color="#000000" stop-opacity="0" offset="0%"></stop>
            <stop stop-color="#000000" offset="100%"></stop>
        </linearGradient>
        <filter x="-50%" y="-50%" width="200%" height="200%" filterUnits="objectBoundingBox" id="filter-2">
            <feGaussianBlur stdDeviation="2.07261029" in="SourceGraphic" result="blur"></feGaussianBlur>
        </filter>
        <linearGradient x1="50%" y1="0%" x2="50%" y2="100%" id="linearGradient-3">
            <stop stop-color="#FBDA61" offset="0%"></stop>
            <stop stop-color="#F76B1C" offset="100%"></stop>
        </linearGradient>
        <path id="path-4" d="M0,0.000242718447 L19.9999515,0.000242718447 L19.9999515,20 L0,20"></path>
    </defs>
    <g id="Page-1" stroke="none" stroke-width="1" fill="none" fill-rule="evenodd" sketch:type="MSPage">
        <g id="Artist_7" sketch:type="MSArtboardGroup">
            <g id="Bulle-01" sketch:type="MSLayerGroup" transform="translate(2.000000, 4.000000)">
                <g id="Ombre" transform="translate(0.000000, 17.000000)" filter="url(#filter-2)" fill-opacity="0.75" fill="url(#linearGradient-1)" sketch:type="MSShapeGroup">
                    <g id="Triangle-1">
                        <path d="M24.9915435,22 L20.6717206,16.0416667 L13.9419313,16.0416667 C9.69459375,16.0416667 5.17564942,13.8782161 3.85271353,11.2177638 L0.673303794,4.82390288 C-0.651479741,2.15973488 2.65579674,0 8.06935076,0 L33.1122376,0 C38.521745,0 42.689631,2.16345054 42.4223052,4.82390288 L41.7798417,11.2177638 C41.5121427,13.8819318 37.8551594,16.0416667 33.6046447,16.0416667 L26.9554156,16.0416667 L24.9915435,22 Z"></path>
                    </g>
                </g>
                <g id="Bulle" transform="translate(2.000000, 0.000000)" stroke-width="0.5" stroke="#FFFFFF" fill="url(#linearGradient-3)" sketch:type="MSShapeGroup">
                    <g id="Triangle-1">
                        <path d="M23.6321839,29.1666667 L20.045977,40 L16.4597701,29.1666667 L9.00170731,29.1666667 C4.03020164,29.1666667 0,25.1417888 0,20.1578097 L0,9.00885696 C0,4.03340265 4.03700043,0 9.00170731,0 L30.9982927,0 C35.9697984,0 40,4.02487783 40,9.00885696 L40,20.1578097 C40,25.133264 35.9629996,29.1666667 30.9982927,29.1666667 L23.6321839,29.1666667 Z"></path>
                    </g>
                </g>
            </g>
            <g id="Page-1" sketch:type="MSLayerGroup" transform="translate(14.000000, 9.000000)">
                <mask id="mask-5" sketch:name="Clip 2" fill="white">
                    <use xlink:href="#path-4"></use>
                </mask>
                <g id="Clip-2"></g>
                <path d="M12.5408107,16.0741456 C12.5587233,17.9393398 11.8059563,19.1730777 11.1395485,19.8964757 C11.1273155,19.909534 11.1134806,19.9209417 11.1012476,19.9331262 C15.4802767,19.4415728 18.6524612,16.346767 16.3225583,13.3593398 C15.178335,15.065068 14.210665,15.3938058 12.5408107,16.0741456 M4.18158738,8.96448544 C5.10362621,8.95841748 5.85634466,9.69972816 5.86124757,10.618466 C5.86935437,11.538466 5.12804369,12.2916699 4.20600485,12.2981262 C3.28479126,12.3046796 2.5352767,11.5640971 2.53042233,10.6437087 C2.52226699,9.72293204 3.26357767,8.97302913 4.18158738,8.96448544 M5.85149029,3.96579612 C6.76945146,3.95725243 7.52464563,4.69696117 7.52789806,5.61817476 C7.53765534,6.54021359 6.79464563,7.28929126 5.87750971,7.29783495 C4.95629612,7.30433981 4.20357767,6.56424272 4.19780097,5.64176699 C4.19051942,4.72302913 4.92862621,3.97186408 5.85149029,3.96579612 M10.8481893,2.29875728 C11.7661019,2.29346602 12.5188689,3.03278641 12.5278495,3.95118447 C12.5310534,4.87035922 11.7929466,5.6251165 10.8725583,5.63123301 C9.95134466,5.63895146 9.19945146,4.89802913 9.19454854,3.97764078 C9.18479126,3.05594175 9.9252767,2.30603883 10.8481893,2.29875728 M5.0556165,15.4947282 C5.6106165,14.5490971 6.51231553,13.013466 8.76158738,12.7758447 C9.1229466,11.036767 9.26780097,10.0260388 10.883966,8.51565049 C12.0281408,7.44715534 14.9993058,4.84142718 16.7350825,3.32531068 C15.9017816,1.48535922 13.2846456,-0.0271165049 9.92042233,0.000601941748 C4.39964563,0.0457475728 -0.0436067961,4.55414563 0.000325242718,10.0765243 C0.0198398058,12.5024466 0.901199029,14.7183204 2.35056796,16.4387087 C3.69818932,16.796767 4.33047087,16.7292427 5.0556165,15.4947282 M15.0545971,12.264 C16.2435777,10.3979806 19.9267816,4.14035922 19.9267816,4.14035922 C20.2197427,3.62157282 19.5686748,3.07958252 19.1137718,3.4624466 C19.1137718,3.4624466 13.6370243,8.22433981 12.0215874,9.73351456 C10.7447913,10.9269126 10.7391117,11.4721068 10.3256165,13.4390971 L11.7253738,14.6060874 C13.5809078,13.8435146 14.1146942,13.7402136 15.0545971,12.264 M3.33357767,18.1932233 C7.15595631,18.5097767 5.7871699,14.4489515 9.32391748,14.4115243 L10.8554709,15.690068 C11.2371699,20.3042427 5.59265534,21.3344854 3.33357767,18.1932233" id="Fill-1" fill="#FFFFFF" sketch:type="MSShapeGroup" mask="url(#mask-5)"></path>
            </g>
        </g>
    </g>
</svg>