<?xml version="1.0" encoding="UTF-8" standalone="no"?>
<svg width="48px" height="48px" viewBox="0 0 48 48" version="1.1" xmlns="http://www.w3.org/2000/svg" xmlns:xlink="http://www.w3.org/1999/xlink" xmlns:sketch="http://www.bohemiancoding.com/sketch/ns">
    <!-- Generator: Sketch 3.4.4 (17249) - http://www.bohemiancoding.com/sketch -->
    <title>Bank_1</title>
    <desc>Created with Sketch.</desc>
    <defs>
        <linearGradient x1="50%" y1="0%" x2="50%" y2="100%" id="linearGradient-1">
            <stop stop-color="#000000" stop-opacity="0" offset="0%"></stop>
            <stop stop-color="#000000" offset="100%"></stop>
        </linearGradient>
        <filter x="-50%" y="-50%" width="200%" height="200%" filterUnits="objectBoundingBox" id="filter-2">
            <feGaussianBlur stdDeviation="2.07261029" in="SourceGraphic" result="blur"></feGaussianBlur>
        </filter>
        <path id="path-3" d="M0,0.161454545 L22,0.161454545 L22,16 L0,16 L0,0.161454545 Z"></path>
    </defs>
    <g id="Page-1" stroke="none" stroke-width="1" fill="none" fill-rule="evenodd" sketch:type="MSPage">
        <g id="Bank_1" sketch:type="MSArtboardGroup">
            <g id="Bulle-01" sketch:type="MSLayerGroup" transform="translate(2.000000, 4.000000)">
                <g id="Ombre" transform="translate(0.000000, 17.000000)" filter="url(#filter-2)" fill-opacity="0.75" fill="url(#linearGradient-1)" sketch:type="MSShapeGroup">
                    <g id="Triangle-1">
                        <path d="M24.9915435,22 L20.6717206,16.0416667 L13.9419313,16.0416667 C9.69459375,16.0416667 5.17564942,13.8782161 3.85271353,11.2177638 L0.673303794,4.82390288 C-0.651479741,2.15973488 2.65579674,0 8.06935076,0 L33.1122376,0 C38.521745,0 42.689631,2.16345054 42.4223052,4.82390288 L41.7798417,11.2177638 C41.5121427,13.8819318 37.8551594,16.0416667 33.6046447,16.0416667 L26.9554156,16.0416667 L24.9915435,22 Z"></path>
                    </g>
                </g>
                <g id="Bulle" transform="translate(2.000000, 0.000000)" stroke-width="0.5" stroke="#FFFFFF" fill="#B5AB92" sketch:type="MSShapeGroup">
                    <g id="Triangle-1">
                        <path d="M23.6321839,29.1666667 L20.045977,40 L16.4597701,29.1666667 L9.00170731,29.1666667 C4.03020164,29.1666667 0,25.1417888 0,20.1578097 L0,9.00885696 C0,4.03340265 4.03700043,0 9.00170731,0 L30.9982927,0 C35.9697984,0 40,4.02487783 40,9.00885696 L40,20.1578097 C40,25.133264 35.9629996,29.1666667 30.9982927,29.1666667 L23.6321839,29.1666667 Z"></path>
                    </g>
                </g>
            </g>
            <g id="Page-1" sketch:type="MSLayerGroup" transform="translate(13.000000, 11.000000)">
                <mask id="mask-4" sketch:name="Clip 2" fill="white">
                    <use xlink:href="#path-3"></use>
                </mask>
                <g id="Clip-2"></g>
                <path d="M18.93276,6.34945455 C18.62476,6.34945455 18.3380267,6.26145455 18.0886933,6.11745455 C18.4128267,5.72181818 18.61596,5.22218182 18.61596,4.67163636 C18.61596,4.12109091 18.4128267,3.62218182 18.0886933,3.22654545 C18.3380267,3.08254545 18.6232933,2.99381818 18.93276,2.99381818 C19.86776,2.99381818 20.6252933,3.74509091 20.6252933,4.67163636 C20.6252933,5.59890909 19.86776,6.34945455 18.93276,6.34945455 L18.93276,6.34945455 Z M16.2890933,6.34945455 C15.3548267,6.34945455 14.5972933,5.59890909 14.5972933,4.67163636 C14.5972933,3.74509091 15.3548267,2.99381818 16.2890933,2.99381818 C17.2240933,2.99381818 17.9816267,3.74509091 17.9816267,4.67163636 C17.9816267,5.59890909 17.2240933,6.34945455 16.2890933,6.34945455 L16.2890933,6.34945455 Z M15.28296,12.0665455 L13.9094267,12.0665455 L13.9094267,10.0723636 L15.28296,10.0723636 L15.28296,12.0665455 Z M12.5204933,12.0665455 L11.1454933,12.0665455 L11.1454933,10.0723636 L12.5204933,10.0723636 L12.5204933,12.0665455 Z M10.4722933,14.2170909 L2.96296,14.2170909 L2.96296,13.0636364 L10.4722933,13.0636364 L10.4722933,14.2170909 Z M2.85662667,10.0723636 L4.23162667,10.0723636 L4.23162667,12.0665455 L2.85662667,12.0665455 L2.85662667,10.0723636 Z M5.61982667,10.0723636 L6.99482667,10.0723636 L6.99482667,12.0665455 L5.61982667,12.0665455 L5.61982667,10.0723636 Z M8.38229333,10.0723636 L9.75729333,10.0723636 L9.75729333,12.0665455 L8.38229333,12.0665455 L8.38229333,10.0723636 Z M19.94696,0.161818182 L2.05289333,0.161818182 C0.920626667,0.161818182 0.000293333333,1.07309091 0.000293333333,2.19672727 L0.000293333333,13.9647273 C0.000293333333,15.0883636 0.920626667,16.0003636 2.05289333,16.0003636 L19.94696,16.0003636 C21.0814267,16.0003636 22.0002933,15.0883636 22.0002933,13.9647273 L22.0002933,2.19672727 C22.0002933,1.07309091 21.0814267,0.161818182 19.94696,0.161818182 L19.94696,0.161818182 Z" id="Fill-1" fill="#FFFFFF" sketch:type="MSShapeGroup" mask="url(#mask-4)"></path>
            </g>
        </g>
    </g>
</svg>