<?xml version="1.0" encoding="UTF-8" standalone="no"?>
<svg width="48px" height="48px" viewBox="0 0 48 48" version="1.1" xmlns="http://www.w3.org/2000/svg" xmlns:xlink="http://www.w3.org/1999/xlink" xmlns:sketch="http://www.bohemiancoding.com/sketch/ns">
    <!-- Generator: Sketch 3.4.4 (17249) - http://www.bohemiancoding.com/sketch -->
    <title>Beer_3</title>
    <desc>Created with Sketch.</desc>
    <defs>
        <linearGradient x1="50%" y1="0%" x2="50%" y2="100%" id="linearGradient-1">
            <stop stop-color="#000000" stop-opacity="0" offset="0%"></stop>
            <stop stop-color="#000000" offset="100%"></stop>
        </linearGradient>
        <filter x="-50%" y="-50%" width="200%" height="200%" filterUnits="objectBoundingBox" id="filter-2">
            <feGaussianBlur stdDeviation="2.07261029" in="SourceGraphic" result="blur"></feGaussianBlur>
        </filter>
    </defs>
    <g id="Page-1" stroke="none" stroke-width="1" fill="none" fill-rule="evenodd" sketch:type="MSPage">
        <g id="Beer_3" sketch:type="MSArtboardGroup">
            <g id="Bulle-01" sketch:type="MSLayerGroup" transform="translate(2.000000, 4.000000)">
                <g id="Ombre" transform="translate(0.000000, 17.000000)" filter="url(#filter-2)" fill-opacity="0.75" fill="url(#linearGradient-1)" sketch:type="MSShapeGroup">
                    <g id="Triangle-1">
                        <path d="M24.9915435,22 L20.6717206,16.0416667 L13.9419313,16.0416667 C9.69459375,16.0416667 5.17564942,13.8782161 3.85271353,11.2177638 L0.673303794,4.82390288 C-0.651479741,2.15973488 2.65579674,0 8.06935076,0 L33.1122376,0 C38.521745,0 42.689631,2.16345054 42.4223052,4.82390288 L41.7798417,11.2177638 C41.5121427,13.8819318 37.8551594,16.0416667 33.6046447,16.0416667 L26.9554156,16.0416667 L24.9915435,22 Z"></path>
                    </g>
                </g>
                <g id="Bulle" transform="translate(2.000000, 0.000000)" stroke-width="0.5" stroke="#FFFFFF" fill="#303030" sketch:type="MSShapeGroup">
                    <g id="Triangle-1">
                        <path d="M23.6321839,29.1666667 L20.045977,40 L16.4597701,29.1666667 L9.00170731,29.1666667 C4.03020164,29.1666667 0,25.1417888 0,20.1578097 L0,9.00885696 C0,4.03340265 4.03700043,0 9.00170731,0 L30.9982927,0 C35.9697984,0 40,4.02487783 40,9.00885696 L40,20.1578097 C40,25.133264 35.9629996,29.1666667 30.9982927,29.1666667 L23.6321839,29.1666667 Z"></path>
                    </g>
                </g>
            </g>
            <path d="M29.7275176,24.0625824 L29.7275176,22.3431817 C32.2385586,20.8868419 32.8144739,17.3475263 30.8914026,17.3475263 L29.7275176,17.3475263 L29.7275176,15.7731476 L31.1776448,15.7731476 C35.1434029,15.7731476 34.2111451,22.3678929 29.7275176,24.0625824 L29.7275176,24.0625824 Z M27.4496338,14.1523135 C26.9510048,14.1523135 26.5078254,13.9163282 26.2248749,13.5502033 C26.2248285,13.5502033 25.8657971,13.8017664 25.8657507,13.8018128 C24.6549932,14.7392168 25.775761,16.4304755 25.8589818,17.2434888 C25.9385862,18.0207566 25.4563232,18.606269 24.6975077,18.606269 C23.9577935,18.606269 23.5238866,17.9808849 23.5825352,17.2434888 C23.6444755,16.4653401 24.8252828,14.9211897 23.5160513,13.7114059 C23.3221169,13.532261 23.2235038,13.4533984 23.021085,13.2592321 C22.6827776,13.6551681 22.1800687,13.9064067 21.6185257,13.9064067 C21.1374217,13.9064067 20.6994813,13.7220229 20.3710491,13.4203419 C20.089814,13.8078863 19.6335604,14.0601912 19.1181018,14.0601912 C18.2635012,14.0601912 17.5706596,13.3673959 17.5706596,12.512749 C17.5706596,11.6581021 18.2635012,10.9653069 19.1181018,10.9653069 C19.4350824,10.9653069 19.7297626,11.0609064 19.9751595,11.224427 C20.280364,10.626814 20.9014365,10.2172474 21.6185257,10.2172474 C22.0892908,10.2172474 22.5186079,10.3938887 22.8445364,10.6841645 C23.2380152,10.0356454 23.9506073,9.60238757 24.7645943,9.60238757 C25.7637068,9.60238757 26.6100084,10.2554965 26.9007478,11.1580359 C27.0713619,11.0933138 27.2562093,11.0575683 27.4495411,11.0575683 C28.304188,11.0575683 28.9968905,11.7503172 28.9968905,12.6049641 C28.9969832,13.4595182 28.3042807,14.1523135 27.4496338,14.1523135 L27.4496338,14.1523135 Z M21.8501529,25.2796452 L20.4564025,25.2796452 L20.4564025,14.9299986 C20.5492203,14.9859118 21.13464,15.204233 21.8501529,15.1510551 L21.8501529,25.2796452 Z M28.7704096,25.240098 L28.7704096,15.0750206 C29.6510194,14.6022155 30.2513215,13.6725541 30.2513215,12.6049641 C30.2513215,11.1135742 29.0798331,9.89053069 27.6087964,9.80763449 C26.9983873,8.95660389 25.9727554,8.3479566 24.764687,8.3479566 C23.9917309,8.3479566 23.2163176,8.60401686 22.578601,9.11516375 C22.2712638,9.01502068 21.9476997,8.96286284 21.6186184,8.96286284 C20.8419533,8.96286284 20.1148034,9.24836329 19.5578503,9.74532325 C19.413292,9.72251289 19.2664155,9.71087589 19.1181945,9.71087589 C17.5733023,9.71087589 16.3163677,10.9677641 16.3163677,12.5127027 C16.3163677,13.623827 16.9665558,14.5859423 17.906417,15.038626 L17.906417,25.240098 C17.906417,25.7685844 17.4779809,26.1971133 16.949309,26.1971133 L16.949309,27.4493189 L29.7275176,27.4493189 L29.7275176,26.1970669 C29.1989384,26.1970669 28.7704096,25.7685844 28.7704096,25.240098 L28.7704096,25.240098 Z" id="Page-1" fill="#FFFFFF" sketch:type="MSShapeGroup"></path>
        </g>
    </g>
</svg>