<?xml version="1.0" encoding="UTF-8" standalone="no"?>
<svg width="48px" height="48px" viewBox="0 0 48 48" version="1.1" xmlns="http://www.w3.org/2000/svg" xmlns:xlink="http://www.w3.org/1999/xlink" xmlns:sketch="http://www.bohemiancoding.com/sketch/ns">
    <!-- Generator: Sketch 3.4.4 (17249) - http://www.bohemiancoding.com/sketch -->
    <title>Burger_5</title>
    <desc>Created with Sketch.</desc>
    <defs>
        <linearGradient x1="50%" y1="0%" x2="50%" y2="100%" id="linearGradient-1">
            <stop stop-color="#000000" stop-opacity="0" offset="0%"></stop>
            <stop stop-color="#000000" offset="100%"></stop>
        </linearGradient>
        <filter x="-50%" y="-50%" width="200%" height="200%" filterUnits="objectBoundingBox" id="filter-2">
            <feGaussianBlur stdDeviation="2.07261029" in="SourceGraphic" result="blur"></feGaussianBlur>
        </filter>
        <linearGradient x1="50%" y1="-26.472168%" x2="50%" y2="135.812988%" id="linearGradient-3">
            <stop stop-color="#FF6784" offset="0%"></stop>
            <stop stop-color="#620043" offset="100%"></stop>
        </linearGradient>
        <path id="path-4" d="M0,0.490909091 L24,0.490909091 L24,17.1818182 L0,17.1818182"></path>
    </defs>
    <g id="Page-1" stroke="none" stroke-width="1" fill="none" fill-rule="evenodd" sketch:type="MSPage">
        <g id="Burger_5" sketch:type="MSArtboardGroup">
            <g id="Bulle-01" sketch:type="MSLayerGroup" transform="translate(2.000000, 4.000000)">
                <g id="Ombre" transform="translate(0.000000, 17.000000)" filter="url(#filter-2)" fill-opacity="0.75" fill="url(#linearGradient-1)" sketch:type="MSShapeGroup">
                    <g id="Triangle-1">
                        <path d="M24.9915435,22 L20.6717206,16.0416667 L13.9419313,16.0416667 C9.69459375,16.0416667 5.17564942,13.8782161 3.85271353,11.2177638 L0.673303794,4.82390288 C-0.651479741,2.15973488 2.65579674,0 8.06935076,0 L33.1122376,0 C38.521745,0 42.689631,2.16345054 42.4223052,4.82390288 L41.7798417,11.2177638 C41.5121427,13.8819318 37.8551594,16.0416667 33.6046447,16.0416667 L26.9554156,16.0416667 L24.9915435,22 Z"></path>
                    </g>
                </g>
                <g id="Bulle" transform="translate(2.000000, 0.000000)" stroke-width="0.5" stroke="#FFFFFF" fill="url(#linearGradient-3)" sketch:type="MSShapeGroup">
                    <g id="Triangle-1">
                        <path d="M23.6321839,29.1666667 L20.045977,40 L16.4597701,29.1666667 L9.00170731,29.1666667 C4.03020164,29.1666667 0,25.1417888 0,20.1578097 L0,9.00885696 C0,4.03340265 4.03700043,0 9.00170731,0 L30.9982927,0 C35.9697984,0 40,4.02487783 40,9.00885696 L40,20.1578097 C40,25.133264 35.9629996,29.1666667 30.9982927,29.1666667 L23.6321839,29.1666667 Z"></path>
                    </g>
                </g>
            </g>
            <g id="Page-1" sketch:type="MSLayerGroup" transform="translate(12.000000, 10.000000)">
                <mask id="mask-5" sketch:name="Clip 2" fill="white">
                    <use xlink:href="#path-4"></use>
                </mask>
                <g id="Clip-2"></g>
                <path d="M0.47976,8.59090909 L9.83976,8.59090909 C10.93096,8.59090909 11.99976,8.92227273 12.98616,9.32809091 C13.17976,9.40663636 13.37096,9.49009091 13.55976,9.57354545 C13.56296,9.57518182 13.56536,9.57681818 13.56856,9.57845455 C14.26456,9.88936364 14.90856,10.2125455 15.47656,10.4481818 C15.48776,10.4522727 15.49736,10.4563636 15.50776,10.4612727 C15.62696,10.5087273 15.74216,10.5553636 15.85336,10.5954545 C15.85816,10.5962727 15.86296,10.5987273 15.86696,10.5995455 C15.97016,10.6355455 16.06856,10.6674545 16.16536,10.6952727 C16.18136,10.7001818 16.19656,10.7042727 16.21256,10.71 C16.30776,10.7361818 16.39896,10.755 16.48776,10.7697273 C16.50616,10.773 16.52376,10.7754545 16.54056,10.7787273 C16.63016,10.7918182 16.71816,10.8 16.79976,10.8 C16.88136,10.8 16.96376,10.7918182 17.04856,10.7787273 C17.06536,10.7754545 17.08136,10.7721818 17.09816,10.7697273 C17.17976,10.7541818 17.26376,10.7345455 17.34856,10.7083636 C17.36376,10.7034545 17.37816,10.6993636 17.39336,10.6944545 C17.47656,10.6674545 17.56136,10.6363636 17.64696,10.6003636 C17.65336,10.5987273 17.65976,10.5962727 17.66536,10.5938182 C17.75816,10.5553636 17.85176,10.512 17.94536,10.4645455 C17.96136,10.4571818 17.97496,10.4506364 17.98936,10.4432727 C18.56856,10.1495455 19.18616,9.72490909 19.80296,9.35509091 C20.49976,8.937 21.19656,8.59090909 21.83976,8.59090909 L23.52056,8.59090909 C23.78456,8.59090909 23.99976,8.37081818 23.99976,8.10081818 C23.99976,7.82836364 23.78456,7.60827273 23.52056,7.60827273 L0.47976,7.60827273 C0.21496,7.60827273 -0.00024,7.82836364 -0.00024,8.10081818 C-0.00024,8.37081818 0.21496,8.59090909 0.47976,8.59090909 M22.55976,9.32809091 L21.83976,9.32809091 C21.20536,9.32809091 20.36296,9.85909091 19.54696,10.3729091 C18.59816,10.9718182 17.70216,11.5363636 16.79976,11.5363636 C16.03256,11.5363636 15.14056,11.1182727 14.10616,10.6339091 C12.80296,10.0202727 11.32376,9.32809091 9.83976,9.32809091 L1.43976,9.32809091 C0.64456,9.32809091 -0.00024,9.98590909 -0.00024,10.8 C-0.00024,11.6132727 0.64456,12.2727273 1.43976,12.2727273 L22.55976,12.2727273 C23.35496,12.2727273 23.99976,11.6132727 23.99976,10.8 C23.99976,9.98590909 23.35496,9.32809091 22.55976,9.32809091 M11.99976,17.1818182 C15.30216,17.1818182 22.55976,17.1818182 22.55976,13.2553636 L1.43976,13.2553636 C1.43976,17.1818182 8.69736,17.1818182 11.99976,17.1818182 M11.99976,0.490909091 C8.69736,0.490909091 1.43976,1.22727273 1.43976,6.62727273 L22.55976,6.62727273 C22.55976,1.22727273 15.30136,0.490909091 11.99976,0.490909091" id="Fill-1" fill="#FFFFFF" sketch:type="MSShapeGroup" mask="url(#mask-5)"></path>
            </g>
        </g>
    </g>
</svg>