<?xml version="1.0" encoding="UTF-8" standalone="no"?>
<svg width="48px" height="48px" viewBox="0 0 48 48" version="1.1" xmlns="http://www.w3.org/2000/svg" xmlns:xlink="http://www.w3.org/1999/xlink" xmlns:sketch="http://www.bohemiancoding.com/sketch/ns">
    <!-- Generator: Sketch 3.4.4 (17249) - http://www.bohemiancoding.com/sketch -->
    <title>Crown_1</title>
    <desc>Created with Sketch.</desc>
    <defs>
        <linearGradient x1="50%" y1="0%" x2="50%" y2="100%" id="linearGradient-1">
            <stop stop-color="#000000" stop-opacity="0" offset="0%"></stop>
            <stop stop-color="#000000" offset="100%"></stop>
        </linearGradient>
        <filter x="-50%" y="-50%" width="200%" height="200%" filterUnits="objectBoundingBox" id="filter-2">
            <feGaussianBlur stdDeviation="2.07261029" in="SourceGraphic" result="blur"></feGaussianBlur>
        </filter>
    </defs>
    <g id="Page-1" stroke="none" stroke-width="1" fill="none" fill-rule="evenodd" sketch:type="MSPage">
        <g id="Crown_1" sketch:type="MSArtboardGroup">
            <g id="Bulle-01" sketch:type="MSLayerGroup" transform="translate(2.000000, 4.000000)">
                <g id="Ombre" transform="translate(0.000000, 17.000000)" filter="url(#filter-2)" fill-opacity="0.75" fill="url(#linearGradient-1)" sketch:type="MSShapeGroup">
                    <g id="Triangle-1">
                        <path d="M24.9915435,22 L20.6717206,16.0416667 L13.9419313,16.0416667 C9.69459375,16.0416667 5.17564942,13.8782161 3.85271353,11.2177638 L0.673303794,4.82390288 C-0.651479741,2.15973488 2.65579674,0 8.06935076,0 L33.1122376,0 C38.521745,0 42.689631,2.16345054 42.4223052,4.82390288 L41.7798417,11.2177638 C41.5121427,13.8819318 37.8551594,16.0416667 33.6046447,16.0416667 L26.9554156,16.0416667 L24.9915435,22 Z"></path>
                    </g>
                </g>
                <g id="Bulle" transform="translate(2.000000, 0.000000)" stroke-width="0.5" stroke="#FFFFFF" fill="#B5AB92" sketch:type="MSShapeGroup">
                    <g id="Triangle-1">
                        <path d="M23.6321839,29.1666667 L20.045977,40 L16.4597701,29.1666667 L9.00170731,29.1666667 C4.03020164,29.1666667 0,25.1417888 0,20.1578097 L0,9.00885696 C0,4.03340265 4.03700043,0 9.00170731,0 L30.9982927,0 C35.9697984,0 40,4.02487783 40,9.00885696 L40,20.1578097 C40,25.133264 35.9629996,29.1666667 30.9982927,29.1666667 L23.6321839,29.1666667 Z"></path>
                    </g>
                </g>
            </g>
            <path d="M36,17.5038835 C36,19.1552233 35.3310874,21.0898447 33.8496117,23 L31.1786796,23 C34.0116699,20.2118641 34.5341942,17.27 33.5302718,15.8261553 C33.1884466,15.3349126 32.6796699,15.0664272 32.0614951,15.0107379 C31.8896505,14.2651068 31.602466,13.6093592 31.218699,13.0595728 C32.8514563,12.8701359 34.29,13.4150874 35.1728155,14.6850485 C35.6972621,15.4394175 36,16.4091456 36,17.5038835 L36,17.5038835 Z M16.8213204,23 L14.1503883,23 C12.6689126,21.0898447 12,19.1552233 12,17.5038835 C12,16.4091456 12.3027379,15.4394175 12.8271262,14.6849903 C13.7099417,13.4149709 15.1484272,12.8700777 16.7812427,13.0595146 C16.3974757,13.609301 16.1103495,14.2650485 15.9384466,15.0106796 C15.3202718,15.0663689 14.8114951,15.3348544 14.4697282,15.8260971 C13.4658058,17.27 13.9882718,20.2118641 16.8213204,23 L16.8213204,23 Z M29.0146602,23 L26.5713204,23 C30.0781748,18.3842524 29.9414563,14.4526214 27.5927767,14.0912816 C26.2382913,13.8822718 24.9999612,14.6874369 24.9999612,16.3173398 L24.9999612,23 L22.9999806,23 L22.9999806,16.3173398 C22.9999806,14.6874951 21.7617087,13.8822718 20.4072233,14.0912816 C18.0586019,14.4525631 17.9218252,18.3841942 21.4286796,23 L18.9853398,23 C16.0761553,18.5541748 16.2978641,14.923767 17.958,13.1850485 C18.695301,12.4130874 19.7305049,11.9999612 20.7714757,11.9999612 C21.5605049,11.9999612 22.3359029,12.2514369 22.9999806,12.6709126 C22.9999806,12.1704078 22.9022913,11.7485437 22.5292427,11.3446796 C22.2011068,10.9907379 21.9999612,10.52 21.9999612,9.99998058 C21.9999612,8.89650485 22.896466,8 23.9999417,8 C25.1034175,8 25.9999806,8.89650485 25.9999806,9.99998058 C25.9999806,10.52 25.7987767,10.9907379 25.4706408,11.3446796 C25.0966019,11.7494757 24.9999029,12.1713398 24.9999029,12.6709126 C25.6639806,12.2519612 26.4404272,11.9999612 27.2304466,11.9999612 C28.2685049,11.9999612 29.3036505,12.4120971 30.0419417,13.1850485 C31.7021942,14.9242913 31.9237864,18.5541748 29.0146602,23 L29.0146602,23 Z M15,24.9999223 L16.0000194,27.9999223 L32.0000388,27.9999223 L33,24.9999223 L15,24.9999223 Z" id="Page-1" fill="#FFFFFF" sketch:type="MSShapeGroup"></path>
        </g>
    </g>
</svg>