<?xml version="1.0" encoding="UTF-8" standalone="no"?>
<svg width="48px" height="48px" viewBox="0 0 48 48" version="1.1" xmlns="http://www.w3.org/2000/svg" xmlns:xlink="http://www.w3.org/1999/xlink" xmlns:sketch="http://www.bohemiancoding.com/sketch/ns">
    <!-- Generator: Sketch 3.4.4 (17249) - http://www.bohemiancoding.com/sketch -->
    <title>Deer_1</title>
    <desc>Created with Sketch.</desc>
    <defs>
        <linearGradient x1="50%" y1="0%" x2="50%" y2="100%" id="linearGradient-1">
            <stop stop-color="#000000" stop-opacity="0" offset="0%"></stop>
            <stop stop-color="#000000" offset="100%"></stop>
        </linearGradient>
        <filter x="-50%" y="-50%" width="200%" height="200%" filterUnits="objectBoundingBox" id="filter-2">
            <feGaussianBlur stdDeviation="2.07261029" in="SourceGraphic" result="blur"></feGaussianBlur>
        </filter>
        <path id="path-3" d="M0,5.33980583e-05 L19.9962105,5.33980583e-05 L19.9962105,22 L0,22"></path>
    </defs>
    <g id="Page-1" stroke="none" stroke-width="1" fill="none" fill-rule="evenodd" sketch:type="MSPage">
        <g id="Deer_1" sketch:type="MSArtboardGroup">
            <g id="Bulle-01" sketch:type="MSLayerGroup" transform="translate(2.000000, 4.000000)">
                <g id="Ombre" transform="translate(0.000000, 17.000000)" filter="url(#filter-2)" fill-opacity="0.75" fill="url(#linearGradient-1)" sketch:type="MSShapeGroup">
                    <g id="Triangle-1">
                        <path d="M24.9915435,22 L20.6717206,16.0416667 L13.9419313,16.0416667 C9.69459375,16.0416667 5.17564942,13.8782161 3.85271353,11.2177638 L0.673303794,4.82390288 C-0.651479741,2.15973488 2.65579674,0 8.06935076,0 L33.1122376,0 C38.521745,0 42.689631,2.16345054 42.4223052,4.82390288 L41.7798417,11.2177638 C41.5121427,13.8819318 37.8551594,16.0416667 33.6046447,16.0416667 L26.9554156,16.0416667 L24.9915435,22 Z"></path>
                    </g>
                </g>
                <g id="Bulle" transform="translate(2.000000, 0.000000)" stroke-width="0.5" stroke="#FFFFFF" fill="#B5AB92" sketch:type="MSShapeGroup">
                    <g id="Triangle-1">
                        <path d="M23.6321839,29.1666667 L20.045977,40 L16.4597701,29.1666667 L9.00170731,29.1666667 C4.03020164,29.1666667 0,25.1417888 0,20.1578097 L0,9.00885696 C0,4.03340265 4.03700043,0 9.00170731,0 L30.9982927,0 C35.9697984,0 40,4.02487783 40,9.00885696 L40,20.1578097 C40,25.133264 35.9629996,29.1666667 30.9982927,29.1666667 L23.6321839,29.1666667 Z"></path>
                    </g>
                </g>
            </g>
            <g id="Page-1" sketch:type="MSLayerGroup" transform="translate(14.000000, 8.000000)">
                <mask id="mask-4" sketch:name="Clip 2" fill="white">
                    <use xlink:href="#path-3"></use>
                </mask>
                <g id="Clip-2"></g>
                <path d="M9.81931579,17.0383759 L9.05852632,17.0383759 C8.395,17.0383759 8.79668421,17.8711186 9.43894737,17.8711186 C10.0812105,17.8711186 10.4828421,17.0383759 9.81931579,17.0383759 M9.99810526,18.9575555 C7.92078947,18.9575555 6.62152632,16.264104 8.76763158,16.264104 L11.2286316,16.264104 C13.3746842,16.264104 12.0753684,18.9575555 9.99810526,18.9575555 M14.8929474,9.7935409 C15.3583684,10.0754293 16.3958421,9.72695352 16.6404211,9.00335643 C15.9172632,8.90125935 15.2122632,9.26676906 14.8929474,9.7935409 M18.4342105,8.21157003 C16.4033684,7.82929333 14.9196842,8.8089875 14.4814211,9.1832011 C13.6446842,8.59058944 12.1964211,7.49422051 9.99805263,7.49422051 C7.79968421,7.49422051 6.35142105,8.59058944 5.51473684,9.1832011 C5.07647368,8.8089341 3.59268421,7.82929333 1.56189474,8.21157003 C2.04842105,9.25966711 3.19484211,10.5147351 4.95989474,10.5740603 C4.99773684,11.8480312 4.98931579,15.4756283 6.58084211,18.2958467 C7.34378947,19.6477788 8.44994737,20.7255652 9.99805263,20.7255652 C11.5461579,20.7255652 12.6523158,19.6477788 13.4153158,18.2958467 C15.0067895,15.4756283 14.9983684,11.8480312 15.0362105,10.5740603 C16.8013158,10.5147351 17.9476842,9.25966711 18.4342105,8.21157003 M19.9962105,7.34561372 C19.6361053,9.70735643 17.7017895,11.3384535 16.2615263,11.627337 C16.0941053,17.2684681 13.8336842,21.9999632 9.99810526,21.9999632 C6.16257895,21.9999632 3.90215789,17.2684681 3.73457895,11.627337 C2.29442105,11.3385069 0.360105263,9.70740983 0,7.34561372 C1.80373684,6.63045352 3.79584211,6.63056032 5.46768421,7.66247779 C6.42521053,6.98442925 8.10826316,6.21987585 9.99810526,6.21987585 C11.8879474,6.21987585 13.571,6.98437585 14.5285263,7.66247779 C16.2003684,6.63061372 18.1924737,6.63050692 19.9962105,7.34561372 M12.7810526,11.309405 C12.2553684,11.1832254 11.7065789,11.6071526 11.5553684,12.2561526 C11.4041579,12.9050992 11.7075789,13.5333807 12.2333158,13.6595069 C12.7590526,13.7855797 13.3077895,13.3617593 13.4590526,12.7127059 C13.6102632,12.0638127 13.3066842,11.4354244 12.7810526,11.309405 M3.35578947,9.00335643 C3.60042105,9.72695352 4.63784211,10.0754293 5.10331579,9.7935409 C4.78394737,9.26676906 4.07894737,8.90125935 3.35578947,9.00335643 M12.3359474,5.74997294 C12.8498947,5.8747642 13.3221053,6.04846809 13.7899474,6.2624875 C13.9438947,6.13753605 14.1498947,5.96954576 14.288,5.84320595 C14.5411053,5.61204576 14.9292105,5.53616711 15.2686842,5.51112343 C16.3715263,5.42963799 17.4042632,4.86164284 18.0713158,3.93491954 C18.5184211,3.31384673 17.5935263,2.63115255 17.1477368,3.25067682 C16.8181053,3.70851177 16.2786316,4.04353119 15.6740526,4.20142925 C16.3041579,3.20689042 16.6775789,2.13006517 17.0568421,0.899880707 C17.3392105,-0.0155222059 16.0432632,-0.38749308 15.7608421,0.529137988 C15.5369474,1.25561857 15.3210526,1.90867682 15.0496842,2.51202148 C14.7281053,2.05701663 14.6341053,1.60537585 14.6605789,0.774021483 C14.6852105,0.000443813542 13.5417895,-0.0250270602 13.5175263,0.736482648 C13.4807368,1.89735643 13.7817895,2.69272051 14.0780526,3.15087585 C14.2854737,3.47179818 14.2595263,3.89385643 14.0136842,4.18562343 C13.3199474,5.0085409 12.4591579,5.65081275 12.3359474,5.74997294 M8.44089474,12.2561526 C8.28957895,11.6071526 7.74084211,11.183172 7.21515789,11.309405 C6.68957895,11.4354244 6.38594737,12.0638127 6.53715789,12.7127059 C6.68842105,13.3617593 7.23715789,13.7856331 7.76284211,13.6595069 C8.28863158,13.5333807 8.59205263,12.9051526 8.44089474,12.2561526 M2.15815789,3.93491954 C1.71105263,3.31384673 2.63589474,2.63115255 3.08168421,3.25067682 C3.41131579,3.70851177 3.95084211,4.04353119 4.55542105,4.20142925 C3.92531579,3.20689042 3.55184211,2.13006517 3.17263158,0.899880707 C2.89026316,-0.0155222059 4.18621053,-0.38749308 4.46857895,0.529137988 C4.69252632,1.25561857 4.90842105,1.90867682 5.17973684,2.51202148 C5.50136842,2.05701663 5.59531579,1.60537585 5.56884211,0.774021483 C5.54426316,0.000443813542 6.68768421,-0.0250270602 6.71194737,0.736482648 C6.74873684,1.89735643 6.44768421,2.69272051 6.15142105,3.15087585 C5.94394737,3.47179818 5.96994737,3.89385643 6.21578947,4.18562343 C6.90957895,5.0085943 7.77042105,5.65086614 7.89363158,5.75002634 C7.37968421,5.8748176 6.90742105,6.04852148 6.43957895,6.2625409 C6.28568421,6.13758944 6.07968421,5.96959915 5.94152632,5.84325935 C5.68847368,5.61209915 5.30036842,5.53622051 4.96084211,5.51117682 C3.85789474,5.42963799 2.82521053,4.86164284 2.15815789,3.93491954" id="Fill-1" fill="#FFFFFF" sketch:type="MSShapeGroup" mask="url(#mask-4)"></path>
            </g>
        </g>
    </g>
</svg>