<?xml version="1.0" encoding="UTF-8" standalone="no"?>
<svg width="48px" height="48px" viewBox="0 0 48 48" version="1.1" xmlns="http://www.w3.org/2000/svg" xmlns:xlink="http://www.w3.org/1999/xlink" xmlns:sketch="http://www.bohemiancoding.com/sketch/ns">
    <!-- Generator: Sketch 3.4.4 (17249) - http://www.bohemiancoding.com/sketch -->
    <title>Flag_1</title>
    <desc>Created with Sketch.</desc>
    <defs>
        <linearGradient x1="50%" y1="0%" x2="50%" y2="100%" id="linearGradient-1">
            <stop stop-color="#000000" stop-opacity="0" offset="0%"></stop>
            <stop stop-color="#000000" offset="100%"></stop>
        </linearGradient>
        <filter x="-50%" y="-50%" width="200%" height="200%" filterUnits="objectBoundingBox" id="filter-2">
            <feGaussianBlur stdDeviation="2.07261029" in="SourceGraphic" result="blur"></feGaussianBlur>
        </filter>
    </defs>
    <g id="Page-1" stroke="none" stroke-width="1" fill="none" fill-rule="evenodd" sketch:type="MSPage">
        <g id="Flag_1" sketch:type="MSArtboardGroup">
            <g id="Bulle-01" sketch:type="MSLayerGroup" transform="translate(2.000000, 4.000000)">
                <g id="Ombre" transform="translate(0.000000, 17.000000)" filter="url(#filter-2)" fill-opacity="0.75" fill="url(#linearGradient-1)" sketch:type="MSShapeGroup">
                    <g id="Triangle-1">
                        <path d="M24.9915435,22 L20.6717206,16.0416667 L13.9419313,16.0416667 C9.69459375,16.0416667 5.17564942,13.8782161 3.85271353,11.2177638 L0.673303794,4.82390288 C-0.651479741,2.15973488 2.65579674,0 8.06935076,0 L33.1122376,0 C38.521745,0 42.689631,2.16345054 42.4223052,4.82390288 L41.7798417,11.2177638 C41.5121427,13.8819318 37.8551594,16.0416667 33.6046447,16.0416667 L26.9554156,16.0416667 L24.9915435,22 Z"></path>
                    </g>
                </g>
                <g id="Bulle" transform="translate(2.000000, 0.000000)" stroke-width="0.5" stroke="#FFFFFF" fill="#B5AB92" sketch:type="MSShapeGroup">
                    <g id="Triangle-1">
                        <path d="M23.6321839,29.1666667 L20.045977,40 L16.4597701,29.1666667 L9.00170731,29.1666667 C4.03020164,29.1666667 0,25.1417888 0,20.1578097 L0,9.00885696 C0,4.03340265 4.03700043,0 9.00170731,0 L30.9982927,0 C35.9697984,0 40,4.02487783 40,9.00885696 L40,20.1578097 C40,25.133264 35.9629996,29.1666667 30.9982927,29.1666667 L23.6321839,29.1666667 Z"></path>
                    </g>
                </g>
            </g>
            <g id="Rectangle-1-Copy-+-Page-1-Copy" sketch:type="MSLayerGroup" transform="translate(17.000000, 11.000000)" fill="#FFFFFF">
                <path d="M9.74761238,15.9437474 L9.74761238,0.0436169685 L8.65092287,0.0436169685 L8.65092287,15.9437474 C7.39946836,15.9928217 6.45754386,16.2065628 6.45754386,16.4628036 C6.45754386,16.7190444 7.39946836,16.9327855 8.65092287,16.9818598 L8.65092287,16.9924548 L9.74761238,16.9924548 L9.74761238,16.9818598 C10.9990669,16.9327855 11.9409914,16.7190444 11.9409914,16.4628036 C11.9409914,16.2065628 10.9990669,15.9928217 9.74761238,15.9437474 Z" id="Rectangle-1-Copy" sketch:type="MSShapeGroup"></path>
                <path d="M8.44750543,0.0436169685 L8.44750543,6.17176182 C8.44750543,6.17176182 4.00278736,6.1751323 5.15743691,6.78328939 C6.31208646,7.39150777 0.770678887,7.39739078 0.770678887,7.39739078 L0.770678887,1.26924594 C0.770678887,1.26924594 6.31208646,1.26336292 5.15743691,0.655144543 C4.00278736,0.0469874482 8.44750543,0.0436169685 8.44750543,0.0436169685 L8.44750543,0.0436169685 Z" id="Page-1-Copy" sketch:type="MSShapeGroup"></path>
            </g>
        </g>
    </g>
</svg>