<?xml version="1.0" encoding="UTF-8" standalone="no"?>
<svg width="48px" height="48px" viewBox="0 0 48 48" version="1.1" xmlns="http://www.w3.org/2000/svg" xmlns:xlink="http://www.w3.org/1999/xlink" xmlns:sketch="http://www.bohemiancoding.com/sketch/ns">
    <!-- Generator: Sketch 3.4.4 (17249) - http://www.bohemiancoding.com/sketch -->
    <title>Flower_8</title>
    <desc>Created with Sketch.</desc>
    <defs>
        <linearGradient x1="50%" y1="0%" x2="50%" y2="100%" id="linearGradient-1">
            <stop stop-color="#000000" stop-opacity="0" offset="0%"></stop>
            <stop stop-color="#000000" offset="100%"></stop>
        </linearGradient>
        <filter x="-50%" y="-50%" width="200%" height="200%" filterUnits="objectBoundingBox" id="filter-2">
            <feGaussianBlur stdDeviation="2.07261029" in="SourceGraphic" result="blur"></feGaussianBlur>
        </filter>
        <linearGradient x1="50%" y1="-25.3637695%" x2="50%" y2="115.036621%" id="linearGradient-3">
            <stop stop-color="#6441A5" offset="0%"></stop>
            <stop stop-color="#442260" offset="100%"></stop>
        </linearGradient>
        <path id="path-4" d="M0,0 L16.9729259,0 L16.9729259,19 L0,19"></path>
    </defs>
    <g id="Page-1" stroke="none" stroke-width="1" fill="none" fill-rule="evenodd" sketch:type="MSPage">
        <g id="Flower_8" sketch:type="MSArtboardGroup">
            <g id="Bulle-01" sketch:type="MSLayerGroup" transform="translate(2.000000, 4.000000)">
                <g id="Ombre" transform="translate(0.000000, 17.000000)" filter="url(#filter-2)" fill-opacity="0.75" fill="url(#linearGradient-1)" sketch:type="MSShapeGroup">
                    <g id="Triangle-1">
                        <path d="M24.9915435,22 L20.6717206,16.0416667 L13.9419313,16.0416667 C9.69459375,16.0416667 5.17564942,13.8782161 3.85271353,11.2177638 L0.673303794,4.82390288 C-0.651479741,2.15973488 2.65579674,0 8.06935076,0 L33.1122376,0 C38.521745,0 42.689631,2.16345054 42.4223052,4.82390288 L41.7798417,11.2177638 C41.5121427,13.8819318 37.8551594,16.0416667 33.6046447,16.0416667 L26.9554156,16.0416667 L24.9915435,22 Z"></path>
                    </g>
                </g>
                <g id="Bulle" transform="translate(2.000000, 0.000000)" stroke-width="0.5" stroke="#FFFFFF" fill="url(#linearGradient-3)" sketch:type="MSShapeGroup">
                    <g id="Triangle-1">
                        <path d="M23.6321839,29.1666667 L20.045977,40 L16.4597701,29.1666667 L9.00170731,29.1666667 C4.03020164,29.1666667 0,25.1417888 0,20.1578097 L0,9.00885696 C0,4.03340265 4.03700043,0 9.00170731,0 L30.9982927,0 C35.9697984,0 40,4.02487783 40,9.00885696 L40,20.1578097 C40,25.133264 35.9629996,29.1666667 30.9982927,29.1666667 L23.6321839,29.1666667 Z"></path>
                    </g>
                </g>
            </g>
            <g id="Page-1" sketch:type="MSLayerGroup" transform="translate(15.000000, 9.000000)">
                <mask id="mask-5" sketch:name="Clip 2" fill="white">
                    <use xlink:href="#path-4"></use>
                </mask>
                <g id="Clip-2"></g>
                <path d="M16.258737,8.85058 C16.0610333,9.08428 11.6196259,13.9229467 9.39829259,16.5430467 L9.39829259,10.8221467 C9.39829259,10.68028 9.45432963,10.5694467 9.61173704,10.5694467 C11.8916259,10.5694467 13.9524037,7.91388 13.9524037,5.36218 C13.9524037,3.47484667 13.5847,2.10684667 12.7756259,0.355046667 C12.6704778,0.127046667 12.654737,-0.000253333333 12.3588111,-0.000253333333 C12.2202926,-0.000253333333 12.0880704,0.06688 12.0238481,0.18658 C11.8141815,0.582413333 10.6770704,2.70788 10.6040333,2.84848 C10.5152556,3.01948 10.3244778,3.03658 10.2357,2.84848 C10.1683296,2.70534667 9.02618148,0.582413333 8.81462593,0.18658 C8.7567,0.0776466667 8.64021852,0.0200133333 8.51618148,0.00861333333 L8.51618148,0.00608 C8.50736667,0.00544666667 8.50044074,-0.000253333333 8.49225556,-0.000253333333 C8.49036667,-0.000253333333 8.48847778,0.00101333333 8.48658889,0.00101333333 C8.4847,0.00101333333 8.48281111,-0.000253333333 8.48092222,-0.000253333333 C8.47273704,-0.000253333333 8.46581111,0.00544666667 8.4569963,0.00608 L8.4569963,0.00861333333 C8.33295926,0.0200133333 8.21647778,0.0776466667 8.15792222,0.18658 C7.9469963,0.582413333 6.80484815,2.70534667 6.73747778,2.84848 C6.6487,3.03658 6.45792222,3.01948 6.36914444,2.84848 C6.29610741,2.70788 5.1589963,0.582413333 4.94932963,0.18658 C4.88510741,0.06688 4.75288519,-0.000253333333 4.61436667,-0.000253333333 C4.31844074,-0.000253333333 4.3027,0.127046667 4.19755185,0.355046667 C3.38847778,2.10684667 3.02077407,3.47484667 3.02077407,5.36218 C3.02077407,7.91388 5.08155185,10.5694467 7.36144074,10.5694467 C7.51884815,10.5694467 7.57425556,10.68028 7.57425556,10.8221467 L7.57425556,16.5430467 C5.35355185,13.9229467 0.911514815,9.08428 0.714440741,8.85058 C0.382625926,8.45538 -0.000188888889,8.61371333 -0.000188888889,9.15458 L-0.000188888889,13.1072133 C-0.000188888889,16.3606467 2.4434037,18.99848 5.45114444,18.99848 L8.4569963,18.9997467 L8.48658889,18.9997467 L8.51618148,18.9997467 L11.5220333,18.99848 C14.5297741,18.99848 16.9733667,16.3606467 16.9733667,13.1072133 L16.9733667,9.15458 C16.9733667,8.61371333 16.5905519,8.45538 16.258737,8.85058" id="Fill-1" fill="#FFFFFF" sketch:type="MSShapeGroup" mask="url(#mask-5)"></path>
            </g>
        </g>
    </g>
</svg>