<?xml version="1.0" encoding="UTF-8" standalone="no"?>
<svg width="48px" height="48px" viewBox="0 0 48 48" version="1.1" xmlns="http://www.w3.org/2000/svg" xmlns:xlink="http://www.w3.org/1999/xlink" xmlns:sketch="http://www.bohemiancoding.com/sketch/ns">
    <!-- Generator: Sketch 3.4.4 (17249) - http://www.bohemiancoding.com/sketch -->
    <title>Food_3</title>
    <desc>Created with Sketch.</desc>
    <defs>
        <linearGradient x1="50%" y1="0%" x2="50%" y2="100%" id="linearGradient-1">
            <stop stop-color="#000000" stop-opacity="0" offset="0%"></stop>
            <stop stop-color="#000000" offset="100%"></stop>
        </linearGradient>
        <filter x="-50%" y="-50%" width="200%" height="200%" filterUnits="objectBoundingBox" id="filter-2">
            <feGaussianBlur stdDeviation="2.07261029" in="SourceGraphic" result="blur"></feGaussianBlur>
        </filter>
    </defs>
    <g id="Page-1" stroke="none" stroke-width="1" fill="none" fill-rule="evenodd" sketch:type="MSPage">
        <g id="Food_3" sketch:type="MSArtboardGroup">
            <g id="Bulle-01" sketch:type="MSLayerGroup" transform="translate(2.000000, 4.000000)">
                <g id="Ombre" transform="translate(0.000000, 17.000000)" filter="url(#filter-2)" fill-opacity="0.75" fill="url(#linearGradient-1)" sketch:type="MSShapeGroup">
                    <g id="Triangle-1">
                        <path d="M24.9915435,22 L20.6717206,16.0416667 L13.9419313,16.0416667 C9.69459375,16.0416667 5.17564942,13.8782161 3.85271353,11.2177638 L0.673303794,4.82390288 C-0.651479741,2.15973488 2.65579674,0 8.06935076,0 L33.1122376,0 C38.521745,0 42.689631,2.16345054 42.4223052,4.82390288 L41.7798417,11.2177638 C41.5121427,13.8819318 37.8551594,16.0416667 33.6046447,16.0416667 L26.9554156,16.0416667 L24.9915435,22 Z"></path>
                    </g>
                </g>
                <g id="Bulle" transform="translate(2.000000, 0.000000)" stroke-width="0.5" stroke="#FFFFFF" fill="#303030" sketch:type="MSShapeGroup">
                    <g id="Triangle-1">
                        <path d="M23.6321839,29.1666667 L20.045977,40 L16.4597701,29.1666667 L9.00170731,29.1666667 C4.03020164,29.1666667 0,25.1417888 0,20.1578097 L0,9.00885696 C0,4.03340265 4.03700043,0 9.00170731,0 L30.9982927,0 C35.9697984,0 40,4.02487783 40,9.00885696 L40,20.1578097 C40,25.133264 35.9629996,29.1666667 30.9982927,29.1666667 L23.6321839,29.1666667 Z"></path>
                    </g>
                </g>
            </g>
            <g id="Stroke-3-+-Fill-1" sketch:type="MSLayerGroup" transform="translate(17.000000, 9.000000)" fill="#FFFFFF">
                <path d="M9.73917238,8.99352361 L9.59749752,8.99352361 L9.59749752,1.84238136 C9.59749752,0.0997712909 11.7743534,0.0669253548 11.7743534,0.0669253548 L11.7743534,8.99352361 L11.6325655,8.99352361 C11.7221456,9.12065354 11.7742403,9.27176278 11.7742403,9.43347315 L11.7742403,18.7658642 C11.7742403,19.2143626 11.3735218,19.5813159 10.8837546,19.5813159 L10.4879832,19.5813159 C9.99821608,19.5813159 9.59749752,19.2143626 9.59749752,18.7658642 L9.59749752,9.43347315 C9.59749752,9.27176278 9.6495922,9.12065354 9.73917238,8.99352361 Z" id="Stroke-3" sketch:type="MSShapeGroup"></path>
                <path d="M5.81656382,0.892802122 L5.81656382,7.1768877 L4.91875907,7.1768877 L4.91875907,0.892802122 C4.91875907,0.402940333 4.51474693,0.00214432342 4.02095432,0.00214432342 C3.5271617,0.00214432342 3.12314956,0.402940333 3.12314956,0.892802122 L3.12314956,7.1768877 L2.22534481,7.1768877 L2.22534481,0.892802122 C2.22534481,0.402940333 1.82133268,0.00214432342 1.32754006,0.00214432342 C0.833747449,0.00214432342 0.429735311,0.402940333 0.429735311,0.892802122 L0.429735311,8.01806451 C0.429735311,8.5079263 0.883625491,8.9582033 1.3774181,8.9582033 L2.9236374,8.9582033 L2.9236374,18.7059581 C2.9236374,19.1958199 3.37752758,19.6460969 3.87132019,19.6460969 L4.27034452,19.6460969 C4.76413714,19.6460969 5.11827123,19.1958199 5.11827123,18.7059581 L5.11827123,8.9582033 L6.76424661,8.9582033 C7.25803923,8.9582033 7.61217332,8.5079263 7.61217332,8.01806451 L7.61217332,0.892802122 C7.61217332,0.402940333 7.20816118,0.00214432342 6.71436857,0.00214432342 C6.22057596,0.00214432342 5.81656382,0.402940333 5.81656382,0.892802122 Z" id="Fill-1" sketch:type="MSShapeGroup"></path>
            </g>
        </g>
    </g>
</svg>