<?xml version="1.0" encoding="UTF-8" standalone="no"?>
<svg width="48px" height="48px" viewBox="0 0 48 48" version="1.1" xmlns="http://www.w3.org/2000/svg" xmlns:xlink="http://www.w3.org/1999/xlink" xmlns:sketch="http://www.bohemiancoding.com/sketch/ns">
    <!-- Generator: Sketch 3.4.4 (17249) - http://www.bohemiancoding.com/sketch -->
    <title>Hair_Dresser_3</title>
    <desc>Created with Sketch.</desc>
    <defs>
        <linearGradient x1="50%" y1="0%" x2="50%" y2="100%" id="linearGradient-1">
            <stop stop-color="#000000" stop-opacity="0" offset="0%"></stop>
            <stop stop-color="#000000" offset="100%"></stop>
        </linearGradient>
        <filter x="-50%" y="-50%" width="200%" height="200%" filterUnits="objectBoundingBox" id="filter-2">
            <feGaussianBlur stdDeviation="2.07261029" in="SourceGraphic" result="blur"></feGaussianBlur>
        </filter>
        <path id="path-3" d="M5.68434189e-14,0.000741935484 L12.5948333,0.000741935484 L12.5948333,22.2580645 L5.68434189e-14,22.2580645"></path>
    </defs>
    <g id="Page-1" stroke="none" stroke-width="1" fill="none" fill-rule="evenodd" sketch:type="MSPage">
        <g id="Hair_Dresser_3" sketch:type="MSArtboardGroup">
            <g id="Bulle-01" sketch:type="MSLayerGroup" transform="translate(2.000000, 4.000000)">
                <g id="Ombre" transform="translate(0.000000, 17.000000)" filter="url(#filter-2)" fill-opacity="0.75" fill="url(#linearGradient-1)" sketch:type="MSShapeGroup">
                    <g id="Triangle-1">
                        <path d="M24.9915435,22 L20.6717206,16.0416667 L13.9419313,16.0416667 C9.69459375,16.0416667 5.17564942,13.8782161 3.85271353,11.2177638 L0.673303794,4.82390288 C-0.651479741,2.15973488 2.65579674,0 8.06935076,0 L33.1122376,0 C38.521745,0 42.689631,2.16345054 42.4223052,4.82390288 L41.7798417,11.2177638 C41.5121427,13.8819318 37.8551594,16.0416667 33.6046447,16.0416667 L26.9554156,16.0416667 L24.9915435,22 Z"></path>
                    </g>
                </g>
                <g id="Bulle" transform="translate(2.000000, 0.000000)" stroke-width="0.5" stroke="#FFFFFF" fill="#303030" sketch:type="MSShapeGroup">
                    <g id="Triangle-1">
                        <path d="M23.6321839,29.1666667 L20.045977,40 L16.4597701,29.1666667 L9.00170731,29.1666667 C4.03020164,29.1666667 0,25.1417888 0,20.1578097 L0,9.00885696 C0,4.03340265 4.03700043,0 9.00170731,0 L30.9982927,0 C35.9697984,0 40,4.02487783 40,9.00885696 L40,20.1578097 C40,25.133264 35.9629996,29.1666667 30.9982927,29.1666667 L23.6321839,29.1666667 Z"></path>
                    </g>
                </g>
            </g>
            <g id="Page-1" sketch:type="MSLayerGroup" transform="translate(23.260339, 18.209389) rotate(29.000000) translate(-23.260339, -18.209389) translate(16.760339, 6.709389)">
                <mask id="mask-4" sketch:name="Clip 2" fill="white">
                    <use xlink:href="#path-3"></use>
                </mask>
                <g id="Clip-2"></g>
                <path d="M7.05437778,18.8605194 C6.34732222,18.8605194 5.77387778,18.2721645 5.77387778,17.5465516 C5.77387778,16.8194548 6.34732222,16.2303581 7.05437778,16.2303581 C7.76143333,16.2303581 8.33343333,16.8194548 8.33343333,17.5465516 C8.33343333,18.2721645 7.76143333,18.8605194 7.05437778,18.8605194 M2.32021111,18.8605194 C1.61387778,18.8605194 1.04115556,18.2721645 1.04115556,17.5465516 C1.04115556,16.8194548 1.61387778,16.2303581 2.32021111,16.2303581 C3.02726667,16.2303581 3.60143333,16.8194548 3.60143333,17.5465516 C3.60143333,18.2721645 3.02726667,18.8605194 2.32021111,18.8605194 M7.05437778,15.1634548 C6.70193333,15.1634548 6.3726,15.2435839 6.07576667,15.3860355 L6.07576667,9.48987419 L4.89348889,0.423422581 C4.89348889,0.423422581 4.86676667,0.293583871 4.69198889,0.238680645 L4.69198889,0.234970968 C4.6891,0.234970968 4.6891,0.234970968 4.68621111,0.237196774 C4.68621111,0.234970968 4.68476667,0.234970968 4.68332222,0.234229032 L4.68332222,0.238680645 C4.50565556,0.293583871 4.4811,0.423422581 4.4811,0.423422581 L3.29954444,9.48987419 L3.29954444,15.3860355 C3.00054444,15.2435839 2.67048889,15.1634548 2.32021111,15.1634548 C1.03826667,15.1634548 -0.000288888889,16.2296161 -0.000288888889,17.5465516 C-0.000288888889,18.8627452 1.03826667,19.9296484 2.32021111,19.9296484 C3.60287778,19.9296484 4.63998889,18.8627452 4.63998889,17.5465516 C4.63998889,17.2957774 4.60243333,17.0546484 4.53382222,16.8291 L4.53382222,11.7564871 L4.68332222,11.7564871 L4.69198889,11.7564871 L4.84004444,11.7564871 L4.84004444,16.8291 C4.77071111,17.0546484 4.73243333,17.2957774 4.73243333,17.5465516 C4.73243333,18.8501323 5.75437778,19.9103581 7.02043333,19.9281645 C6.98937778,20.3547774 7.03343333,20.9921 7.22626667,21.5121968 C7.44943333,22.1198419 8.03948889,22.4425839 8.35654444,22.1472935 C8.99932222,21.5656161 8.03948889,20.7828742 8.03948889,20.7828742 C7.7766,20.3911323 7.87554444,19.9756484 7.97954444,19.7315516 C8.80071111,19.3635516 9.37487778,18.5244226 9.37487778,17.5465516 C9.37487778,16.2296161 8.33487778,15.1634548 7.05437778,15.1634548 M11.6766,0.000519354839 C11.4888222,0.000519354839 11.3169333,0.0569064516 11.1732111,0.1541 L7.62998889,0.1541 C7.37576667,0.1541 7.16993333,0.367035484 7.16993333,0.627454839 C7.16993333,0.888616129 7.37576667,1.10080968 7.62998889,1.10080968 L10.7572111,1.10080968 L10.7572111,1.5904871 L7.62998889,1.5904871 C7.37576667,1.5904871 7.16993333,1.80193871 7.16993333,2.06235806 C7.16993333,2.32351935 7.37576667,2.5334871 7.62998889,2.5334871 L10.7572111,2.5334871 L10.7572111,3.02464839 L7.62998889,3.02464839 C7.37576667,3.02464839 7.16993333,3.2361 7.16993333,3.49726129 C7.16993333,3.75842258 7.37576667,3.96987419 7.62998889,3.96987419 L10.7572111,3.96987419 L10.7572111,4.45955161 L7.62998889,4.45955161 C7.37576667,4.45955161 7.16993333,4.67100323 7.16993333,4.93216452 C7.16993333,5.19258387 7.37576667,5.40403548 7.62998889,5.40403548 L10.7572111,5.40403548 L10.7572111,5.8937129 L7.62998889,5.8937129 C7.37576667,5.8937129 7.16993333,6.10590645 7.16993333,6.36632581 C7.16993333,6.62897097 7.37576667,6.83893871 7.62998889,6.83893871 L10.7572111,6.83893871 L10.7572111,7.3301 L7.62998889,7.3301 C7.37576667,7.3301 7.16993333,7.54006774 7.16993333,7.8027129 C7.16993333,8.06164839 7.37576667,8.27532581 7.62998889,8.27532581 L10.7572111,8.27532581 L10.7572111,8.76500323 L7.62998889,8.76500323 C7.37576667,8.76500323 7.16993333,8.97645484 7.16993333,9.23539032 C7.16993333,9.49877742 7.37576667,9.71022903 7.62998889,9.71022903 L10.7572111,9.71022903 L10.7572111,10.1991645 L7.62998889,10.1991645 C7.37576667,10.1991645 7.16993333,10.4106161 7.16993333,10.6717774 C7.16993333,10.9336806 7.37576667,11.1451323 7.62998889,11.1451323 L10.7572111,11.1451323 L10.7572111,11.6333258 L7.62998889,11.6333258 C7.37576667,11.6333258 7.16993333,11.8455194 7.16993333,12.1059387 C7.16993333,12.3678419 7.37576667,12.5792935 7.62998889,12.5792935 L10.7572111,12.5792935 L10.7572111,21.0440355 C10.7572111,21.5656161 11.1688778,21.9885194 11.6766,21.9885194 C12.1836,21.9885194 12.5952667,21.5656161 12.5952667,21.0440355 L12.5952667,0.945003226 C12.5952667,0.422680645 12.1836,0.000519354839 11.6766,0.000519354839" id="Fill-1" fill="#FFFFFF" sketch:type="MSShapeGroup" mask="url(#mask-4)"></path>
            </g>
        </g>
    </g>
</svg>