<?xml version="1.0" encoding="UTF-8" standalone="no"?>
<svg width="48px" height="48px" viewBox="0 0 48 48" version="1.1" xmlns="http://www.w3.org/2000/svg" xmlns:xlink="http://www.w3.org/1999/xlink" xmlns:sketch="http://www.bohemiancoding.com/sketch/ns">
    <!-- Generator: Sketch 3.4.4 (17249) - http://www.bohemiancoding.com/sketch -->
    <title>Home_4</title>
    <desc>Created with Sketch.</desc>
    <defs>
        <linearGradient x1="50%" y1="0%" x2="50%" y2="100%" id="linearGradient-1">
            <stop stop-color="#000000" stop-opacity="0" offset="0%"></stop>
            <stop stop-color="#000000" offset="100%"></stop>
        </linearGradient>
        <filter x="-50%" y="-50%" width="200%" height="200%" filterUnits="objectBoundingBox" id="filter-2">
            <feGaussianBlur stdDeviation="2.07261029" in="SourceGraphic" result="blur"></feGaussianBlur>
        </filter>
        <linearGradient x1="48.2139587%" y1="-23.7988281%" x2="48.2139587%" y2="100%" id="linearGradient-3">
            <stop stop-color="#5AD2F2" offset="0%"></stop>
            <stop stop-color="#262A6C" offset="100%"></stop>
        </linearGradient>
    </defs>
    <g id="Page-1" stroke="none" stroke-width="1" fill="none" fill-rule="evenodd" sketch:type="MSPage">
        <g id="Home_4" sketch:type="MSArtboardGroup">
            <g id="Bulle-01" sketch:type="MSLayerGroup" transform="translate(2.000000, 4.000000)">
                <g id="Ombre" transform="translate(0.000000, 17.000000)" filter="url(#filter-2)" fill-opacity="0.75" fill="url(#linearGradient-1)" sketch:type="MSShapeGroup">
                    <g id="Triangle-1">
                        <path d="M24.9915435,22 L20.6717206,16.0416667 L13.9419313,16.0416667 C9.69459375,16.0416667 5.17564942,13.8782161 3.85271353,11.2177638 L0.673303794,4.82390288 C-0.651479741,2.15973488 2.65579674,0 8.06935076,0 L33.1122376,0 C38.521745,0 42.689631,2.16345054 42.4223052,4.82390288 L41.7798417,11.2177638 C41.5121427,13.8819318 37.8551594,16.0416667 33.6046447,16.0416667 L26.9554156,16.0416667 L24.9915435,22 Z"></path>
                    </g>
                </g>
                <g id="Bulle" transform="translate(2.000000, 0.000000)" stroke-width="0.5" stroke="#FFFFFF" fill="url(#linearGradient-3)" sketch:type="MSShapeGroup">
                    <g id="Triangle-1">
                        <path d="M23.6321839,29.1666667 L20.045977,40 L16.4597701,29.1666667 L9.00170731,29.1666667 C4.03020164,29.1666667 0,25.1417888 0,20.1578097 L0,9.00885696 C0,4.03340265 4.03700043,0 9.00170731,0 L30.9982927,0 C35.9697984,0 40,4.02487783 40,9.00885696 L40,20.1578097 C40,25.133264 35.9629996,29.1666667 30.9982927,29.1666667 L23.6321839,29.1666667 Z"></path>
                    </g>
                </g>
            </g>
            <path d="M25.3741995,16.3073225 C25.3741995,15.6039993 24.8039693,15.0338226 24.1006996,15.0338226 C23.3974299,15.0338226 22.827307,15.6039993 22.827307,16.3073225 C22.827307,17.0105922 23.3974299,17.5807688 24.1006996,17.5807688 C24.8039693,17.5807688 25.3741995,17.0105922 25.3741995,16.3073225 L25.3741995,16.3073225 Z M31.0812207,18.7485235 L17.2193816,18.7485235 L24.1228997,12.7202451 L31.0812207,18.7485235 Z M32.2131014,13.7489546 L29.615374,11.3116145 L29.615374,9.30111589 L32.2131014,9.30111589 L32.2131014,13.7489546 Z M31.8243861,21.9045232 C32.3748293,21.9045232 32.8209752,21.4583773 32.8209752,20.9079877 C32.8209752,20.3574372 32.3748293,19.9112913 31.8243861,19.9112913 L26.0776836,19.9112913 L26.0776836,25.1158621 L31.8243861,25.1158621 C32.3748293,25.1158621 32.8209752,24.669609 32.8209752,24.1192193 C32.8209752,23.5688297 32.3748293,23.1225766 31.8243861,23.1225766 L29.0513641,23.1225766 L29.0513641,21.9045232 L31.8243861,21.9045232 Z M16.4184639,19.9112913 C15.8680743,19.9112913 15.4218748,20.3574372 15.4218748,20.9079877 C15.4218748,21.4583773 15.8680743,21.9045232 16.4184639,21.9045232 L19.191486,21.9045232 L19.191486,23.1225766 L16.4184639,23.1225766 C15.8680743,23.1225766 15.4218748,23.5688297 15.4218748,24.1192193 C15.4218748,24.669609 15.8680743,25.1158621 16.4184639,25.1158621 L22.16522,25.1158621 L22.16522,19.9112913 L16.4184639,19.9112913 Z M24.1248837,8 L13.3496022,17.6129428 C12.9008823,18.0130263 12.8823823,18.7069655 13.3041296,19.1309649 C13.6934348,19.5224687 14.3198086,19.543918 14.7350139,19.1800839 L24.1209156,10.9464934 L33.3562967,19.0660807 C33.7705367,19.4304511 34.3964816,19.4103424 34.7865911,19.0202328 C35.2110732,18.5957507 35.1915543,17.9017579 34.7448186,17.5015136 L24.1248837,8 Z M15.4218748,27.2197725 C15.4218748,26.6693829 15.8680743,26.2231297 16.4184639,26.2231297 L31.8243861,26.2231297 C32.3748293,26.2231297 32.8209752,26.6693829 32.8209752,27.2197725 C32.8209752,27.7701621 32.3748293,28.2164153 31.8243861,28.2164153 L16.4184639,28.2164153 C15.8680743,28.2164153 15.4218748,27.7701621 15.4218748,27.2197725 L15.4218748,27.2197725 Z" id="Fill-1" fill="#FFFFFF" sketch:type="MSShapeGroup"></path>
        </g>
    </g>
</svg>