<?xml version="1.0" encoding="UTF-8" standalone="no"?>
<svg width="48px" height="48px" viewBox="0 0 48 48" version="1.1" xmlns="http://www.w3.org/2000/svg" xmlns:xlink="http://www.w3.org/1999/xlink" xmlns:sketch="http://www.bohemiancoding.com/sketch/ns">
    <!-- Generator: Sketch 3.4.4 (17249) - http://www.bohemiancoding.com/sketch -->
    <title>Medic_4</title>
    <desc>Created with Sketch.</desc>
    <defs>
        <linearGradient x1="50%" y1="0%" x2="50%" y2="100%" id="linearGradient-1">
            <stop stop-color="#000000" stop-opacity="0" offset="0%"></stop>
            <stop stop-color="#000000" offset="100%"></stop>
        </linearGradient>
        <filter x="-50%" y="-50%" width="200%" height="200%" filterUnits="objectBoundingBox" id="filter-2">
            <feGaussianBlur stdDeviation="2.07261029" in="SourceGraphic" result="blur"></feGaussianBlur>
        </filter>
        <linearGradient x1="48.2139587%" y1="-23.7988281%" x2="48.2139587%" y2="100%" id="linearGradient-3">
            <stop stop-color="#5AD2F2" offset="0%"></stop>
            <stop stop-color="#262A6C" offset="100%"></stop>
        </linearGradient>
        <path id="path-4" d="M0,0.555945946 L18,0.555945946 L18,22 L0,22 L0,0.555945946 Z"></path>
    </defs>
    <g id="Page-1" stroke="none" stroke-width="1" fill="none" fill-rule="evenodd" sketch:type="MSPage">
        <g id="Medic_4" sketch:type="MSArtboardGroup">
            <g id="Bulle-01" sketch:type="MSLayerGroup" transform="translate(2.000000, 4.000000)">
                <g id="Ombre" transform="translate(0.000000, 17.000000)" filter="url(#filter-2)" fill-opacity="0.75" fill="url(#linearGradient-1)" sketch:type="MSShapeGroup">
                    <g id="Triangle-1">
                        <path d="M24.9915435,22 L20.6717206,16.0416667 L13.9419313,16.0416667 C9.69459375,16.0416667 5.17564942,13.8782161 3.85271353,11.2177638 L0.673303794,4.82390288 C-0.651479741,2.15973488 2.65579674,0 8.06935076,0 L33.1122376,0 C38.521745,0 42.689631,2.16345054 42.4223052,4.82390288 L41.7798417,11.2177638 C41.5121427,13.8819318 37.8551594,16.0416667 33.6046447,16.0416667 L26.9554156,16.0416667 L24.9915435,22 Z"></path>
                    </g>
                </g>
                <g id="Bulle" transform="translate(2.000000, 0.000000)" stroke-width="0.5" stroke="#FFFFFF" fill="url(#linearGradient-3)" sketch:type="MSShapeGroup">
                    <g id="Triangle-1">
                        <path d="M23.6321839,29.1666667 L20.045977,40 L16.4597701,29.1666667 L9.00170731,29.1666667 C4.03020164,29.1666667 0,25.1417888 0,20.1578097 L0,9.00885696 C0,4.03340265 4.03700043,0 9.00170731,0 L30.9982927,0 C35.9697984,0 40,4.02487783 40,9.00885696 L40,20.1578097 C40,25.133264 35.9629996,29.1666667 30.9982927,29.1666667 L23.6321839,29.1666667 Z"></path>
                    </g>
                </g>
            </g>
            <g id="Page-1" sketch:type="MSLayerGroup" transform="translate(15.000000, 8.000000)">
                <mask id="mask-5" sketch:name="Clip 2" fill="white">
                    <use xlink:href="#path-4"></use>
                </mask>
                <g id="Clip-2"></g>
                <path d="M17.17926,10.0655351 L16.33206,14.5208324 L10.80906,13.4904 L11.65566,9.0351027 C11.94546,7.52364324 13.41066,6.53245405 14.93646,6.81429189 C16.46106,7.10148108 17.46306,8.55348108 17.17926,10.0655351 L17.17926,10.0655351 Z M15.08046,6.06153514 C13.13526,5.69942703 11.26386,6.96591351 10.89606,8.8924 L9.20526,17.7922919 C8.83926,19.7187784 10.11846,21.5745081 12.06306,21.9384 C14.00766,22.3005081 15.87966,21.0322378 16.24626,19.1069405 L17.93766,10.2070486 C18.30306,8.27996757 17.02446,6.42423784 15.08046,6.06153514 L15.08046,6.06153514 Z M1.73286,9.1011027 L0.82806,4.6571027 C0.52446,3.14802162 1.50666,1.68412973 3.02706,1.37672432 C4.54986,1.07585946 6.02766,2.04921081 6.33846,3.55650811 L7.24206,7.99991351 L1.73286,9.1011027 Z M7.09446,3.40429189 C6.70266,1.48256216 4.81506,0.239264865 2.87406,0.626345946 C0.93606,1.01342703 -0.31914,2.88580541 0.07086,4.80812973 L1.87686,13.6848324 C2.26806,15.6065622 4.15746,16.8504541 6.09666,16.463373 C8.03646,16.0756973 9.29166,14.2039135 8.89986,12.2815892 L7.09446,3.40429189 Z" id="Fill-1" fill="#FFFFFF" sketch:type="MSShapeGroup" mask="url(#mask-5)"></path>
            </g>
        </g>
    </g>
</svg>