<?xml version="1.0" encoding="UTF-8" standalone="no"?>
<svg width="48px" height="48px" viewBox="0 0 48 48" version="1.1" xmlns="http://www.w3.org/2000/svg" xmlns:xlink="http://www.w3.org/1999/xlink" xmlns:sketch="http://www.bohemiancoding.com/sketch/ns">
    <!-- Generator: Sketch 3.4.4 (17249) - http://www.bohemiancoding.com/sketch -->
    <title>Metro_1</title>
    <desc>Created with Sketch.</desc>
    <defs>
        <linearGradient x1="50%" y1="0%" x2="50%" y2="100%" id="linearGradient-1">
            <stop stop-color="#000000" stop-opacity="0" offset="0%"></stop>
            <stop stop-color="#000000" offset="100%"></stop>
        </linearGradient>
        <filter x="-50%" y="-50%" width="200%" height="200%" filterUnits="objectBoundingBox" id="filter-2">
            <feGaussianBlur stdDeviation="2.07261029" in="SourceGraphic" result="blur"></feGaussianBlur>
        </filter>
    </defs>
    <g id="Page-1" stroke="none" stroke-width="1" fill="none" fill-rule="evenodd" sketch:type="MSPage">
        <g id="Metro_1" sketch:type="MSArtboardGroup">
            <g id="Bulle-01" sketch:type="MSLayerGroup" transform="translate(2.000000, 4.000000)">
                <g id="Ombre" transform="translate(0.000000, 17.000000)" filter="url(#filter-2)" fill-opacity="0.75" fill="url(#linearGradient-1)" sketch:type="MSShapeGroup">
                    <g id="Triangle-1">
                        <path d="M24.9915435,22 L20.6717206,16.0416667 L13.9419313,16.0416667 C9.69459375,16.0416667 5.17564942,13.8782161 3.85271353,11.2177638 L0.673303794,4.82390288 C-0.651479741,2.15973488 2.65579674,0 8.06935076,0 L33.1122376,0 C38.521745,0 42.689631,2.16345054 42.4223052,4.82390288 L41.7798417,11.2177638 C41.5121427,13.8819318 37.8551594,16.0416667 33.6046447,16.0416667 L26.9554156,16.0416667 L24.9915435,22 Z"></path>
                    </g>
                </g>
                <g id="Bulle" transform="translate(2.000000, 0.000000)" stroke-width="0.5" stroke="#FFFFFF" fill="#B5AB92" sketch:type="MSShapeGroup">
                    <g id="Triangle-1">
                        <path d="M23.6321839,29.1666667 L20.045977,40 L16.4597701,29.1666667 L9.00170731,29.1666667 C4.03020164,29.1666667 0,25.1417888 0,20.1578097 L0,9.00885696 C0,4.03340265 4.03700043,0 9.00170731,0 L30.9982927,0 C35.9697984,0 40,4.02487783 40,9.00885696 L40,20.1578097 C40,25.133264 35.9629996,29.1666667 30.9982927,29.1666667 L23.6321839,29.1666667 Z"></path>
                    </g>
                </g>
            </g>
            <g id="M-+-Oval-13" sketch:type="MSLayerGroup" transform="translate(15.000000, 10.000000)">
                <path d="M7.87019066,11.9859307 L6.4117113,6.18925103 L6.4117113,12.4700217 C6.4117113,12.817576 6.33413339,13.0782378 6.17897523,13.2520149 C6.02381708,13.425792 5.81797702,13.5126793 5.56144887,13.5126793 C5.31319582,13.5126793 5.11045887,13.4268264 4.95323194,13.2551181 C4.79600501,13.0834097 4.71739273,12.8217135 4.71739273,12.4700217 L4.71739273,5.27071935 C4.71739273,4.87351447 4.82082995,4.60561208 5.02770748,4.46700413 C5.23458502,4.32839617 5.51386551,4.25909324 5.86555733,4.25909324 L6.43653648,4.25909324 C6.7799532,4.25909324 7.02923689,4.2901244 7.18439505,4.35218766 C7.3395532,4.41425093 7.45436852,4.52596312 7.52884443,4.6873276 C7.60332034,4.84869208 7.68813886,5.11142262 7.78330253,5.47552709 L9.1052434,10.4591821 L10.4271843,5.47552709 C10.5223479,5.11142262 10.6071665,4.84869208 10.6816424,4.6873276 C10.7561183,4.52596312 10.8709336,4.41425093 11.0260917,4.35218766 C11.1812499,4.2901244 11.4305336,4.25909324 11.7739503,4.25909324 L12.3449295,4.25909324 C12.6966213,4.25909324 12.9759018,4.32839617 13.1827793,4.46700413 C13.3896568,4.60561208 13.4930941,4.87351447 13.4930941,5.27071935 L13.4930941,12.4700217 C13.4930941,12.817576 13.4155162,13.0782378 13.260358,13.2520149 C13.1051998,13.425792 12.897291,13.5126793 12.6366253,13.5126793 C12.3925098,13.5126793 12.1918416,13.425792 12.0346147,13.2520149 C11.8773878,13.0782378 11.7987755,12.817576 11.7987755,12.4700217 L11.7987755,6.18925103 L10.3402961,11.9859307 C10.2451325,12.3624478 10.1675545,12.6386252 10.1075601,12.8144711 C10.0475656,12.990317 9.93688775,13.1506447 9.77552327,13.295459 C9.61415879,13.4402733 9.3907344,13.5126793 9.1052434,13.5126793 C8.89009076,13.5126793 8.70804125,13.4661326 8.55908942,13.3730377 C8.4101376,13.2799428 8.29428791,13.16099 8.2115369,13.0161757 C8.12878588,12.8713614 8.06362043,12.7110337 8.0160386,12.5351878 C7.96845676,12.3593419 7.91984127,12.176258 7.87019066,11.9859307 L7.87019066,11.9859307 Z" id="M" fill="#FFFFFF" sketch:type="MSShapeGroup"></path>
                <circle id="Oval-13" stroke="#FFFFFF" stroke-width="2" sketch:type="MSShapeGroup" cx="9" cy="9" r="9"></circle>
            </g>
        </g>
    </g>
</svg>