<?xml version="1.0" encoding="UTF-8" standalone="no"?>
<svg width="48px" height="48px" viewBox="0 0 48 48" version="1.1" xmlns="http://www.w3.org/2000/svg" xmlns:xlink="http://www.w3.org/1999/xlink" xmlns:sketch="http://www.bohemiancoding.com/sketch/ns">
    <!-- Generator: Sketch 3.4.4 (17249) - http://www.bohemiancoding.com/sketch -->
    <title>Motel_1</title>
    <desc>Created with Sketch.</desc>
    <defs>
        <linearGradient x1="50%" y1="0%" x2="50%" y2="100%" id="linearGradient-1">
            <stop stop-color="#000000" stop-opacity="0" offset="0%"></stop>
            <stop stop-color="#000000" offset="100%"></stop>
        </linearGradient>
        <filter x="-50%" y="-50%" width="200%" height="200%" filterUnits="objectBoundingBox" id="filter-2">
            <feGaussianBlur stdDeviation="2.07261029" in="SourceGraphic" result="blur"></feGaussianBlur>
        </filter>
        <path id="path-3" d="M0,0.105 L24,0.105 L24,15 L0,15 L0,0.105 Z"></path>
    </defs>
    <g id="Page-1" stroke="none" stroke-width="1" fill="none" fill-rule="evenodd" sketch:type="MSPage">
        <g id="Motel_1" sketch:type="MSArtboardGroup">
            <g id="Bulle-01" sketch:type="MSLayerGroup" transform="translate(2.000000, 4.000000)">
                <g id="Ombre" transform="translate(0.000000, 17.000000)" filter="url(#filter-2)" fill-opacity="0.75" fill="url(#linearGradient-1)" sketch:type="MSShapeGroup">
                    <g id="Triangle-1">
                        <path d="M24.9915435,22 L20.6717206,16.0416667 L13.9419313,16.0416667 C9.69459375,16.0416667 5.17564942,13.8782161 3.85271353,11.2177638 L0.673303794,4.82390288 C-0.651479741,2.15973488 2.65579674,0 8.06935076,0 L33.1122376,0 C38.521745,0 42.689631,2.16345054 42.4223052,4.82390288 L41.7798417,11.2177638 C41.5121427,13.8819318 37.8551594,16.0416667 33.6046447,16.0416667 L26.9554156,16.0416667 L24.9915435,22 Z"></path>
                    </g>
                </g>
                <g id="Bulle" transform="translate(2.000000, 0.000000)" stroke-width="0.5" stroke="#FFFFFF" fill="#B5AB92" sketch:type="MSShapeGroup">
                    <g id="Triangle-1">
                        <path d="M23.6321839,29.1666667 L20.045977,40 L16.4597701,29.1666667 L9.00170731,29.1666667 C4.03020164,29.1666667 0,25.1417888 0,20.1578097 L0,9.00885696 C0,4.03340265 4.03700043,0 9.00170731,0 L30.9982927,0 C35.9697984,0 40,4.02487783 40,9.00885696 L40,20.1578097 C40,25.133264 35.9629996,29.1666667 30.9982927,29.1666667 L23.6321839,29.1666667 Z"></path>
                    </g>
                </g>
            </g>
            <g id="Page-1" sketch:type="MSLayerGroup" transform="translate(12.000000, 11.000000)">
                <mask id="mask-4" sketch:name="Clip 2" fill="white">
                    <use xlink:href="#path-3"></use>
                </mask>
                <g id="Clip-2"></g>
                <path d="M3.91952,8.42826316 L8.81792,8.42826316 C8.81792,8.42826316 9.54752,8.52852632 9.56352,7.85115789 L9.56352,4.24642105 C9.56352,3.68826316 9.10352,3.23510526 8.53792,3.23510526 C7.97232,3.23510526 7.51472,3.68826316 7.51472,4.24642105 L7.51472,6.40563158 L3.91952,6.40563158 C3.35392,6.40563158 2.89632,6.85878947 2.89632,7.41694737 C2.89632,7.97589474 3.35392,8.42826316 3.91952,8.42826316 L3.91952,8.42826316 Z M4.99472,5.95089474 C6.13072,5.95089474 7.05152,5.03984211 7.05152,3.91878947 C7.05152,2.79694737 6.13072,1.88747368 4.99472,1.88747368 C3.85712,1.88747368 2.93632,2.79694737 2.93632,3.91878947 C2.93632,5.03984211 3.85712,5.95089474 4.99472,5.95089474 L4.99472,5.95089474 Z M20.98352,5.21194737 C20.98352,3.14826316 19.21472,3.34642105 19.21472,3.34642105 L9.92272,3.34642105 L9.92272,8.34694737 L20.98352,8.34694737 L20.98352,5.21194737 Z M22.79232,3.30773684 C22.12592,3.30773684 21.58352,3.84063158 21.58352,4.49905263 L21.58352,8.81905263 L2.41472,8.81905263 L2.41472,1.29615789 C2.41472,0.637736842 1.87392,0.104842105 1.20752,0.104842105 C0.54032,0.104842105 0.00032,0.637736842 0.00032,1.29615789 L0.00032,14.9998421 L2.41472,14.9998421 L2.41472,11.7985263 L21.58352,11.7985263 L21.58352,14.9998421 L24.00032,14.9998421 L24.00032,4.49905263 C24.00032,3.84063158 23.45952,3.30773684 22.79232,3.30773684 L22.79232,3.30773684 Z" id="Fill-1" fill="#FFFFFF" sketch:type="MSShapeGroup" mask="url(#mask-4)"></path>
            </g>
        </g>
    </g>
</svg>