<?xml version="1.0" encoding="UTF-8" standalone="no"?>
<svg width="48px" height="48px" viewBox="0 0 48 48" version="1.1" xmlns="http://www.w3.org/2000/svg" xmlns:xlink="http://www.w3.org/1999/xlink" xmlns:sketch="http://www.bohemiancoding.com/sketch/ns">
    <!-- Generator: Sketch 3.4.4 (17249) - http://www.bohemiancoding.com/sketch -->
    <title>Rocket_7</title>
    <desc>Created with Sketch.</desc>
    <defs>
        <linearGradient x1="50%" y1="0%" x2="50%" y2="100%" id="linearGradient-1">
            <stop stop-color="#000000" stop-opacity="0" offset="0%"></stop>
            <stop stop-color="#000000" offset="100%"></stop>
        </linearGradient>
        <filter x="-50%" y="-50%" width="200%" height="200%" filterUnits="objectBoundingBox" id="filter-2">
            <feGaussianBlur stdDeviation="2.07261029" in="SourceGraphic" result="blur"></feGaussianBlur>
        </filter>
        <linearGradient x1="50%" y1="0%" x2="50%" y2="100%" id="linearGradient-3">
            <stop stop-color="#FBDA61" offset="0%"></stop>
            <stop stop-color="#F76B1C" offset="100%"></stop>
        </linearGradient>
        <path id="path-4" d="M0,0 L19.9804866,0 L19.9804866,20 L0,20 L0,0 Z"></path>
    </defs>
    <g id="Page-1" stroke="none" stroke-width="1" fill="none" fill-rule="evenodd" sketch:type="MSPage">
        <g id="Rocket_7" sketch:type="MSArtboardGroup">
            <g id="Bulle-01" sketch:type="MSLayerGroup" transform="translate(2.000000, 4.000000)">
                <g id="Ombre" transform="translate(0.000000, 17.000000)" filter="url(#filter-2)" fill-opacity="0.75" fill="url(#linearGradient-1)" sketch:type="MSShapeGroup">
                    <g id="Triangle-1">
                        <path d="M24.9915435,22 L20.6717206,16.0416667 L13.9419313,16.0416667 C9.69459375,16.0416667 5.17564942,13.8782161 3.85271353,11.2177638 L0.673303794,4.82390288 C-0.651479741,2.15973488 2.65579674,0 8.06935076,0 L33.1122376,0 C38.521745,0 42.689631,2.16345054 42.4223052,4.82390288 L41.7798417,11.2177638 C41.5121427,13.8819318 37.8551594,16.0416667 33.6046447,16.0416667 L26.9554156,16.0416667 L24.9915435,22 Z"></path>
                    </g>
                </g>
                <g id="Bulle" transform="translate(2.000000, 0.000000)" stroke-width="0.5" stroke="#FFFFFF" fill="url(#linearGradient-3)" sketch:type="MSShapeGroup">
                    <g id="Triangle-1">
                        <path d="M23.6321839,29.1666667 L20.045977,40 L16.4597701,29.1666667 L9.00170731,29.1666667 C4.03020164,29.1666667 0,25.1417888 0,20.1578097 L0,9.00885696 C0,4.03340265 4.03700043,0 9.00170731,0 L30.9982927,0 C35.9697984,0 40,4.02487783 40,9.00885696 L40,20.1578097 C40,25.133264 35.9629996,29.1666667 30.9982927,29.1666667 L23.6321839,29.1666667 Z"></path>
                    </g>
                </g>
            </g>
            <g id="Page-1" sketch:type="MSLayerGroup" transform="translate(15.000000, 9.000000)">
                <mask id="mask-5" sketch:name="Clip 2" fill="white">
                    <use xlink:href="#path-4"></use>
                </mask>
                <g id="Clip-2"></g>
                <path d="M18.179708,11.3309709 C17.9163017,12.1913107 17.2412652,12.8646117 16.3789294,13.1273786 C17.2412652,13.3901456 17.9163017,14.0634951 18.179708,14.9237864 C18.4431144,14.0634951 19.1181022,13.3901942 19.9804866,13.1273786 C19.1181022,12.8646602 18.4431144,12.1913107 18.179708,11.3309709 L18.179708,11.3309709 Z M8.94092457,0 C8.67751825,0.860339806 8.00253041,1.53364078 7.14014599,1.79640777 C8.00253041,2.05917476 8.67751825,2.73252427 8.94092457,3.59281553 C9.2043309,2.73252427 9.87931873,2.0592233 10.7417032,1.79640777 C9.87931873,1.53368932 9.2043309,0.860339806 8.94092457,0 L8.94092457,0 Z M4.45498783,0 C4.28982968,0.539223301 3.86676399,0.961262136 3.32627737,1.12592233 C3.86676399,1.29067961 4.28987835,1.7126699 4.45498783,2.2518932 C4.62009732,1.7126699 5.04311436,1.29063107 5.58364964,1.12592233 C5.04311436,0.961262136 4.62009732,0.539223301 4.45498783,0 L4.45498783,0 Z M5.97600973,2.66242718 C5.77012165,3.33485437 5.24257908,3.86106796 4.56856448,4.06645631 C5.24257908,4.27184466 5.77007299,4.79805825 5.97600973,5.47048544 C6.18184915,4.79805825 6.70939173,4.2718932 7.38345499,4.06645631 C6.70939173,3.86106796 6.18184915,3.33480583 5.97600973,2.66242718 L5.97600973,2.66242718 Z M18.179708,8.06572816 C18.0224818,8.57927184 17.6195134,8.98116505 17.1047689,9.13805825 C17.6195134,9.29490291 18.0224331,9.69684466 18.179708,10.2103883 C18.3369343,9.69684466 18.739854,9.29495146 19.2546472,9.13805825 C18.739854,8.98121359 18.3369343,8.57927184 18.179708,8.06572816 L18.179708,8.06572816 Z M1.52885645,19.1575728 L0.923260341,18.5533981 L4.32958637,15.1553883 L4.93518248,15.7595146 L1.52885645,19.1575728 Z M4.64321168,18.2902427 L4.03761557,17.6861165 L6.20467153,15.5243204 L6.81026764,16.1284466 L4.64321168,18.2902427 Z M1.61323601,16.8210194 L1.0076399,16.2168932 L3.95328467,13.2784466 L4.55888078,13.8825728 L1.61323601,16.8210194 Z M13.039562,9.0718932 C13.6153285,8.49762136 13.6154258,7.56621359 13.0396594,6.9918932 C12.4637956,6.41757282 11.5302676,6.41757282 10.9545012,6.9918932 C10.3787348,7.56631068 10.3788321,8.49752427 10.9545012,9.07194175 C11.530365,9.64626214 12.4637956,9.64626214 13.039562,9.0718932 L13.039562,9.0718932 Z M10.1623358,11.1228641 C10.5112409,10.7747573 10.5112409,10.2103398 10.1623358,9.86223301 C9.81333333,9.51417476 9.2476399,9.51417476 8.89863747,9.86237864 C8.54973236,10.2104369 8.54963504,10.7748058 8.89863747,11.1228641 C9.24759124,11.4709709 9.81333333,11.4709709 10.1623358,11.1228641 L10.1623358,11.1228641 Z M7.83941606,15.4950971 L4.5189781,12.1826699 C5.78583942,8.35728155 9.4649635,3.53116505 15.9880779,4.03665049 C16.5389294,10.5485922 11.8049635,14.1063592 7.83941606,15.4950971 L7.83941606,15.4950971 Z M3.59206813,11.3061165 C3.83513382,10.5383495 4.54428224,9.08791262 5.12778589,8.23140777 C3.46515815,8.09650485 1.10058394,9.3434466 0,11.4823301 C1.07192214,10.6779126 2.22,10.4460194 3.59206813,11.3061165 L3.59206813,11.3061165 Z M8.5383455,20 C10.6823358,18.9021845 11.9322628,16.5431553 11.797129,14.8846602 C10.9385401,15.4667476 9.48462287,16.1741262 8.71498783,16.4166019 C9.57712895,17.7853883 9.34476886,18.930534 8.5383455,20 L8.5383455,20 Z" id="Fill-1" fill="#FFFFFF" sketch:type="MSShapeGroup" mask="url(#mask-5)"></path>
            </g>
        </g>
    </g>
</svg>