<?xml version="1.0" encoding="UTF-8" standalone="no"?>
<svg width="48px" height="48px" viewBox="0 0 48 48" version="1.1" xmlns="http://www.w3.org/2000/svg" xmlns:xlink="http://www.w3.org/1999/xlink" xmlns:sketch="http://www.bohemiancoding.com/sketch/ns">
    <!-- Generator: Sketch 3.4.4 (17249) - http://www.bohemiancoding.com/sketch -->
    <title>Science_1</title>
    <desc>Created with Sketch.</desc>
    <defs>
        <linearGradient x1="50%" y1="0%" x2="50%" y2="100%" id="linearGradient-1">
            <stop stop-color="#000000" stop-opacity="0" offset="0%"></stop>
            <stop stop-color="#000000" offset="100%"></stop>
        </linearGradient>
        <filter x="-50%" y="-50%" width="200%" height="200%" filterUnits="objectBoundingBox" id="filter-2">
            <feGaussianBlur stdDeviation="2.07261029" in="SourceGraphic" result="blur"></feGaussianBlur>
        </filter>
        <path id="path-3" d="M0,0 L16.4530435,0 L16.4530435,23 L0,23 L0,0 Z"></path>
    </defs>
    <g id="Page-1" stroke="none" stroke-width="1" fill="none" fill-rule="evenodd" sketch:type="MSPage">
        <g id="Science_1" sketch:type="MSArtboardGroup">
            <g id="Bulle-01" sketch:type="MSLayerGroup" transform="translate(2.000000, 4.000000)">
                <g id="Ombre" transform="translate(0.000000, 17.000000)" filter="url(#filter-2)" fill-opacity="0.75" fill="url(#linearGradient-1)" sketch:type="MSShapeGroup">
                    <g id="Triangle-1">
                        <path d="M24.9915435,22 L20.6717206,16.0416667 L13.9419313,16.0416667 C9.69459375,16.0416667 5.17564942,13.8782161 3.85271353,11.2177638 L0.673303794,4.82390288 C-0.651479741,2.15973488 2.65579674,0 8.06935076,0 L33.1122376,0 C38.521745,0 42.689631,2.16345054 42.4223052,4.82390288 L41.7798417,11.2177638 C41.5121427,13.8819318 37.8551594,16.0416667 33.6046447,16.0416667 L26.9554156,16.0416667 L24.9915435,22 Z"></path>
                    </g>
                </g>
                <g id="Bulle" transform="translate(2.000000, 0.000000)" stroke-width="0.5" stroke="#FFFFFF" fill="#B5AB92" sketch:type="MSShapeGroup">
                    <g id="Triangle-1">
                        <path d="M23.6321839,29.1666667 L20.045977,40 L16.4597701,29.1666667 L9.00170731,29.1666667 C4.03020164,29.1666667 0,25.1417888 0,20.1578097 L0,9.00885696 C0,4.03340265 4.03700043,0 9.00170731,0 L30.9982927,0 C35.9697984,0 40,4.02487783 40,9.00885696 L40,20.1578097 C40,25.133264 35.9629996,29.1666667 30.9982927,29.1666667 L23.6321839,29.1666667 Z"></path>
                    </g>
                </g>
            </g>
            <g id="Page-1" sketch:type="MSLayerGroup" transform="translate(16.000000, 7.000000)">
                <mask id="mask-4" sketch:name="Clip 2" fill="white">
                    <use xlink:href="#path-3"></use>
                </mask>
                <g id="Clip-2"></g>
                <path d="M7.99147826,13.41571 C7.74386957,13.41571 7.54430435,13.62271 7.54430435,13.88031 C7.54430435,14.1371433 7.74386957,14.3456767 7.99147826,14.3456767 C8.23834783,14.3456767 8.44013043,14.1371433 8.44013043,13.88031 C8.44013043,13.62271 8.23834783,13.41571 7.99147826,13.41571 L7.99147826,13.41571 Z M8.06686957,-0.06919 C8.31447826,-0.06919 8.51552174,-0.277723333 8.51552174,-0.534556667 C8.51552174,-0.79139 8.31447826,-0.999923333 8.06686957,-0.999923333 C7.82,-0.999923333 7.61895652,-0.79139 7.61895652,-0.534556667 C7.61895652,-0.277723333 7.82,-0.06919 8.06686957,-0.06919 L8.06686957,-0.06919 Z M9.74691304,2.48764333 C10.1807826,2.48764333 10.5326087,2.12271 10.5326087,1.67497667 C10.5326087,1.22494333 10.1807826,0.860776667 9.74691304,0.860776667 C9.31452174,0.860776667 8.96269565,1.22494333 8.96269565,1.67497667 C8.96269565,2.12271 9.31452174,2.48764333 9.74691304,2.48764333 L9.74691304,2.48764333 Z M6.87095652,4.34757667 C7.69730435,4.34757667 8.36547826,3.65527667 8.36547826,2.79891 C8.36547826,1.94177667 7.69730435,1.24717667 6.87095652,1.24717667 C6.04534783,1.24717667 5.37717391,1.94177667 5.37717391,2.79891 C5.37717391,3.65527667 6.04534783,4.34757667 6.87095652,4.34757667 L6.87095652,4.34757667 Z M8.31891304,15.7241433 L5.19091304,15.7241433 L7.54430435,12.41291 L7.54430435,6.93891 L8.90947826,6.93891 L8.90947826,10.3321767 C8.83482609,10.18421 8.68626087,10.08301 8.51552174,10.08301 C8.26717391,10.08301 8.06686957,10.2915433 8.06686957,10.5483767 C8.06686957,10.8044433 8.26717391,11.0129767 8.51552174,11.0129767 C8.68626087,11.0129767 8.83482609,10.91101 8.90947826,10.7645767 L8.90947826,12.41291 L11.2628696,15.7241433 L8.31891304,15.7241433 Z M16.178087,20.38701 C15.8691304,19.7491433 10.5481304,12.15071 10.5481304,12.15071 L10.5481304,6.93891 L10.9176957,6.93891 C11.2872609,6.93891 11.5888261,6.62687667 11.5888261,6.24201 L11.5888261,5.96677667 C11.5888261,5.58114333 11.2872609,5.26911 10.9176957,5.26911 L5.53608696,5.26911 C5.16504348,5.26911 4.86495652,5.58114333 4.86495652,5.96677667 L4.86495652,6.24201 C4.86495652,6.62687667 5.16504348,6.93891 5.53608696,6.93891 L5.90565217,6.93891 L5.90565217,12.15071 C5.90565217,12.15071 0.583173913,19.7491433 0.275695652,20.38701 C-0.691826087,22.0437767 1.1996087,22.0000767 1.1996087,22.0000767 L8.3203913,22.0000767 L11.4927391,22.0000767 L15.2541739,22.0000767 C15.2541739,22.0000767 17.1441304,22.0437767 16.178087,20.38701 L16.178087,20.38701 Z" id="Fill-1" fill="#FFFFFF" sketch:type="MSShapeGroup" mask="url(#mask-4)"></path>
            </g>
        </g>
    </g>
</svg>