<?xml version="1.0" encoding="UTF-8" standalone="no"?>
<svg width="48px" height="48px" viewBox="0 0 48 48" version="1.1" xmlns="http://www.w3.org/2000/svg" xmlns:xlink="http://www.w3.org/1999/xlink" xmlns:sketch="http://www.bohemiancoding.com/sketch/ns">
    <!-- Generator: Sketch 3.4.4 (17249) - http://www.bohemiancoding.com/sketch -->
    <title>Shop_8</title>
    <desc>Created with Sketch.</desc>
    <defs>
        <linearGradient x1="50%" y1="0%" x2="50%" y2="100%" id="linearGradient-1">
            <stop stop-color="#000000" stop-opacity="0" offset="0%"></stop>
            <stop stop-color="#000000" offset="100%"></stop>
        </linearGradient>
        <filter x="-50%" y="-50%" width="200%" height="200%" filterUnits="objectBoundingBox" id="filter-2">
            <feGaussianBlur stdDeviation="2.07261029" in="SourceGraphic" result="blur"></feGaussianBlur>
        </filter>
        <linearGradient x1="50%" y1="-25.3637695%" x2="50%" y2="115.036621%" id="linearGradient-3">
            <stop stop-color="#6441A5" offset="0%"></stop>
            <stop stop-color="#442260" offset="100%"></stop>
        </linearGradient>
    </defs>
    <g id="Page-1" stroke="none" stroke-width="1" fill="none" fill-rule="evenodd" sketch:type="MSPage">
        <g id="Shop_8" sketch:type="MSArtboardGroup">
            <g id="Bulle-01" sketch:type="MSLayerGroup" transform="translate(2.000000, 4.000000)">
                <g id="Ombre" transform="translate(0.000000, 17.000000)" filter="url(#filter-2)" fill-opacity="0.75" fill="url(#linearGradient-1)" sketch:type="MSShapeGroup">
                    <g id="Triangle-1">
                        <path d="M24.9915435,22 L20.6717206,16.0416667 L13.9419313,16.0416667 C9.69459375,16.0416667 5.17564942,13.8782161 3.85271353,11.2177638 L0.673303794,4.82390288 C-0.651479741,2.15973488 2.65579674,0 8.06935076,0 L33.1122376,0 C38.521745,0 42.689631,2.16345054 42.4223052,4.82390288 L41.7798417,11.2177638 C41.5121427,13.8819318 37.8551594,16.0416667 33.6046447,16.0416667 L26.9554156,16.0416667 L24.9915435,22 Z"></path>
                    </g>
                </g>
                <g id="Bulle" transform="translate(2.000000, 0.000000)" stroke-width="0.5" stroke="#FFFFFF" fill="url(#linearGradient-3)" sketch:type="MSShapeGroup">
                    <g id="Triangle-1">
                        <path d="M23.6321839,29.1666667 L20.045977,40 L16.4597701,29.1666667 L9.00170731,29.1666667 C4.03020164,29.1666667 0,25.1417888 0,20.1578097 L0,9.00885696 C0,4.03340265 4.03700043,0 9.00170731,0 L30.9982927,0 C35.9697984,0 40,4.02487783 40,9.00885696 L40,20.1578097 C40,25.133264 35.9629996,29.1666667 30.9982927,29.1666667 L23.6321839,29.1666667 Z"></path>
                    </g>
                </g>
            </g>
            <path d="M27.3140892,8.29975728 L29.9047134,12.6478847 L29.9047134,13.5314515 C29.9047134,14.464649 29.1482293,15.221184 28.2150318,15.221184 C27.2818344,15.221184 26.5252994,14.464649 26.5252994,13.5314515 L26.5252994,12.6478847 L26.521172,12.6478847 L25.6142675,8.29975728 L27.3140892,8.29975728 Z M25.4970701,12.6478847 L25.5011975,12.6478847 L25.5011975,13.5314515 C25.5011975,14.464649 24.7446624,15.221184 23.811465,15.221184 C22.8782675,15.221184 22.1217325,14.464649 22.1217325,13.5314515 L22.1217325,12.6478847 L22.1258599,12.6478847 L22.978293,8.29975728 L24.6446879,8.29975728 L25.4970701,12.6478847 Z M34.3082803,12.6478847 L34.3082803,13.5314515 C34.3082803,14.464649 33.5517452,15.221184 32.6185478,15.221184 C31.6853503,15.221184 30.9288153,14.464649 30.9288153,13.5314515 L30.9288153,12.6478847 L28.2837197,8.29975728 L30.0450446,8.29975728 L34.3082803,12.6478847 Z M19.3392102,8.29975728 L16.6941146,12.6478847 L16.6941146,13.5314515 C16.6941146,14.464649 15.9375796,15.221184 15.0043822,15.221184 C14.0711847,15.221184 13.3146497,14.464649 13.3146497,13.5314515 L13.3146497,12.6478847 L17.5778854,8.29975728 L19.3392102,8.29975728 Z M22.0086624,8.29975728 L21.101758,12.6478847 L21.0976306,12.6478847 L21.0976306,13.5314515 C21.0976306,14.464649 20.3410955,15.221184 19.4078981,15.221184 C18.4747006,15.221184 17.7182166,14.464649 17.7182166,13.5314515 L17.7182166,12.6478847 L20.3088408,8.29975728 L22.0086624,8.29975728 Z M17.6076943,22.1441394 L20.7414522,19.0103815 C21.1000255,18.652063 21.6389809,19.19377 21.2819363,19.5508656 L18.1481783,22.6846235 C17.789707,23.042891 17.2505987,22.5013369 17.6076943,22.1441394 L17.6076943,22.1441394 Z M17.5089427,20.3065853 L18.9038471,18.9116808 C19.2624204,18.5533624 19.8013758,19.0950694 19.4443312,19.4521649 L18.0494268,20.8470694 C17.6910064,21.2052859 17.1518981,20.6637828 17.5089427,20.3065853 L17.5089427,20.3065853 Z M16.6161529,18.1086745 L31.0237962,18.1086745 L31.0237962,24.7074006 L16.6161529,24.7074006 L16.6161529,18.1086745 Z M14.8327134,28.2997573 L32.8072357,28.2997573 L32.8072357,16.325235 L14.8327134,16.325235 L14.8327134,28.2997573 Z" id="Page-1" fill="#FFFFFF" sketch:type="MSShapeGroup"></path>
        </g>
    </g>
</svg>