<?xml version="1.0" encoding="UTF-8" standalone="no"?>
<svg width="48px" height="48px" viewBox="0 0 48 48" version="1.1" xmlns="http://www.w3.org/2000/svg" xmlns:xlink="http://www.w3.org/1999/xlink" xmlns:sketch="http://www.bohemiancoding.com/sketch/ns">
    <!-- Generator: Sketch 3.4.4 (17249) - http://www.bohemiancoding.com/sketch -->
    <title>Train_8</title>
    <desc>Created with Sketch.</desc>
    <defs>
        <linearGradient x1="50%" y1="0%" x2="50%" y2="100%" id="linearGradient-1">
            <stop stop-color="#000000" stop-opacity="0" offset="0%"></stop>
            <stop stop-color="#000000" offset="100%"></stop>
        </linearGradient>
        <filter x="-50%" y="-50%" width="200%" height="200%" filterUnits="objectBoundingBox" id="filter-2">
            <feGaussianBlur stdDeviation="2.07261029" in="SourceGraphic" result="blur"></feGaussianBlur>
        </filter>
        <linearGradient x1="50%" y1="-25.3637695%" x2="50%" y2="115.036621%" id="linearGradient-3">
            <stop stop-color="#6441A5" offset="0%"></stop>
            <stop stop-color="#442260" offset="100%"></stop>
        </linearGradient>
        <path id="path-4" d="M0,0 L15.6048,0 L15.6048,24 L0,24 L0,0 Z"></path>
    </defs>
    <g id="Page-1" stroke="none" stroke-width="1" fill="none" fill-rule="evenodd" sketch:type="MSPage">
        <g id="Train_8" sketch:type="MSArtboardGroup">
            <g id="Bulle-01" sketch:type="MSLayerGroup" transform="translate(2.000000, 4.000000)">
                <g id="Ombre" transform="translate(0.000000, 17.000000)" filter="url(#filter-2)" fill-opacity="0.75" fill="url(#linearGradient-1)" sketch:type="MSShapeGroup">
                    <g id="Triangle-1">
                        <path d="M24.9915435,22 L20.6717206,16.0416667 L13.9419313,16.0416667 C9.69459375,16.0416667 5.17564942,13.8782161 3.85271353,11.2177638 L0.673303794,4.82390288 C-0.651479741,2.15973488 2.65579674,0 8.06935076,0 L33.1122376,0 C38.521745,0 42.689631,2.16345054 42.4223052,4.82390288 L41.7798417,11.2177638 C41.5121427,13.8819318 37.8551594,16.0416667 33.6046447,16.0416667 L26.9554156,16.0416667 L24.9915435,22 Z"></path>
                    </g>
                </g>
                <g id="Bulle" transform="translate(2.000000, 0.000000)" stroke-width="0.5" stroke="#FFFFFF" fill="url(#linearGradient-3)" sketch:type="MSShapeGroup">
                    <g id="Triangle-1">
                        <path d="M23.6321839,29.1666667 L20.045977,40 L16.4597701,29.1666667 L9.00170731,29.1666667 C4.03020164,29.1666667 0,25.1417888 0,20.1578097 L0,9.00885696 C0,4.03340265 4.03700043,0 9.00170731,0 L30.9982927,0 C35.9697984,0 40,4.02487783 40,9.00885696 L40,20.1578097 C40,25.133264 35.9629996,29.1666667 30.9982927,29.1666667 L23.6321839,29.1666667 Z"></path>
                    </g>
                </g>
            </g>
            <g id="Page-1" sketch:type="MSLayerGroup" transform="translate(16.000000, 6.000000)">
                <mask id="mask-5" sketch:name="Clip 2" fill="white">
                    <use xlink:href="#path-4"></use>
                </mask>
                <g id="Clip-2"></g>
                <path d="M6.67032,1.79448 C7.16552,1.79448 7.56712,1.39288 7.56712,0.89768 C7.56712,0.40248 7.16552,8e-05 6.67032,8e-05 C6.17512,8e-05 5.77192,0.40248 5.77192,0.89768 C5.77192,1.39288 6.17512,1.79448 6.67032,1.79448 L6.67032,1.79448 Z M8.93592,1.79448 C9.43112,1.79448 9.83272,1.39288 9.83272,0.89768 C9.83272,0.40248 9.43112,8e-05 8.93592,8e-05 C8.44072,8e-05 8.03912,0.40248 8.03912,0.89768 C8.03912,1.39288 8.44072,1.79448 8.93592,1.79448 L8.93592,1.79448 Z M10.24552,15.88568 C10.24552,15.14168 10.84872,14.53928 11.59032,14.53928 C12.33272,14.53928 12.93592,15.14168 12.93592,15.88568 C12.93592,16.62808 12.33272,17.23128 11.59032,17.23128 C10.84872,17.23128 10.24552,16.62808 10.24552,15.88568 L10.24552,15.88568 Z M3.73752,10.57448 C3.14712,10.57448 2.66872,10.09608 2.66872,9.50568 L2.66872,6.68648 C2.66872,6.09608 3.14712,5.61768 3.73752,5.61768 L11.89032,5.61768 C12.48152,5.61768 12.95912,6.09608 12.95912,6.68648 L12.95912,9.50568 C12.95912,10.09608 12.48152,10.57448 11.89032,10.57448 L3.73752,10.57448 Z M4.03752,17.23128 C3.29432,17.23128 2.69192,16.62808 2.69192,15.88568 C2.69192,15.14168 3.29432,14.53928 4.03752,14.53928 C4.78152,14.53928 5.38312,15.14168 5.38312,15.88568 C5.38312,16.62808 4.78152,17.23128 4.03752,17.23128 L4.03752,17.23128 Z M5.87992,3.44888 C5.87992,3.21288 6.07032,3.02168 6.30632,3.02168 L9.32152,3.02168 C9.55752,3.02168 9.75032,3.21288 9.75032,3.44888 L9.75032,4.48168 C9.75032,4.71848 9.55752,4.90888 9.32152,4.90888 L6.30632,4.90888 C6.07032,4.90888 5.87992,4.71848 5.87992,4.48168 L5.87992,3.44888 Z M12.00952,18.50248 C13.43432,18.17688 14.49992,16.90408 14.49992,15.38008 L14.49992,5.47528 C14.49992,3.70488 13.06392,2.26968 11.29352,2.26968 L4.31112,2.26968 C2.54072,2.26968 1.10472,3.70488 1.10472,5.47528 L1.10472,15.38008 C1.10472,16.90408 2.17032,18.17688 3.59512,18.50248 L-8e-05,24.00008 L2.20952,24.00008 L4.70312,20.22328 L7.33912,20.22328 L8.26552,20.22328 L10.90152,20.22328 L13.39512,24.00008 L15.60472,24.00008 L12.00952,18.50248 Z" id="Fill-1" fill="#FFFFFF" sketch:type="MSShapeGroup" mask="url(#mask-5)"></path>
            </g>
        </g>
    </g>
</svg>